<svg xmlns="http://www.w3.org/2000/svg" xmlns:xlink="http://www.w3.org/1999/xlink" viewBox="0 0 170.18 47.81"><defs><style>.cls-1{fill:url(#New_Gradient_Swatch_2);}.cls-2{fill:#fff;}.cls-3{fill:url(#New_Gradient_Swatch_2-2);}.cls-4{fill:url(#New_Gradient_Swatch_2-3);}.cls-5{fill:url(#New_Gradient_Swatch_2-4);}.cls-6{fill:url(#New_Gradient_Swatch_2-5);}.cls-7{fill:url(#New_Gradient_Swatch_2-6);}.cls-8{fill:url(#New_Gradient_Swatch_2-7);}.cls-9{fill:url(#New_Gradient_Swatch_2-8);}.cls-10{fill:url(#New_Gradient_Swatch_2-9);}.cls-11{fill:url(#New_Gradient_Swatch_2-10);}</style><linearGradient id="New_Gradient_Swatch_2" x1="118.29" y1="48.21" x2="126.71" y2="0.46" gradientUnits="userSpaceOnUse"><stop offset="0"/><stop offset="1" stop-color="#4d4d4d"/></linearGradient><linearGradient id="New_Gradient_Swatch_2-2" x1="137.25" y1="32.71" x2="154.37" y2="32.71" xlink:href="#New_Gradient_Swatch_2"/><linearGradient id="New_Gradient_Swatch_2-3" x1="0" y1="32.88" x2="18.45" y2="32.88" xlink:href="#New_Gradient_Swatch_2"/><linearGradient id="New_Gradient_Swatch_2-4" x1="20.01" y1="32.58" x2="35.36" y2="32.58" xlink:href="#New_Gradient_Swatch_2"/><linearGradient id="New_Gradient_Swatch_2-5" x1="36.41" y1="32.76" x2="53.07" y2="32.76" xlink:href="#New_Gradient_Swatch_2"/><linearGradient id="New_Gradient_Swatch_2-6" x1="54.13" y1="32.58" x2="69.48" y2="32.58" xlink:href="#New_Gradient_Swatch_2"/><linearGradient id="New_Gradient_Swatch_2-7" x1="71.45" y1="32.84" x2="88.62" y2="32.84" xlink:href="#New_Gradient_Swatch_2"/><linearGradient id="New_Gradient_Swatch_2-8" x1="89.87" y1="32.92" x2="106.91" y2="32.92" xlink:href="#New_Gradient_Swatch_2"/><linearGradient id="New_Gradient_Swatch_2-9" x1="155.43" y1="33.07" x2="168.91" y2="33.07" xlink:href="#New_Gradient_Swatch_2"/><linearGradient id="New_Gradient_Swatch_2-10" x1="115.95" y1="25.95" x2="132.15" y2="25.95" xlink:href="#New_Gradient_Swatch_2"/></defs><g id="Layer_2" data-name="Layer 2"><g id="Layer_1-2" data-name="Layer 1"><path class="cls-1" d="M123.68.26l.44-.26h-2.38c-5,0-9,4.83-9,10.78h-3.89V46.55h25.75V10.78h-3.89C130.72,5.63,127.7,1.32,123.68.26Z"/><path class="cls-2" d="M124.12,0c-5,0-9,4.83-9,10.78h-3.89V46.55H137V10.78H133.1C133.1,4.83,129.08,0,124.12,0Z"/><path class="cls-3" d="M154.37,20.35a.27.27,0,0,1-.15.25,1,1,0,0,0-.41.51v.05c-.1.15-.15.31-.26.46a13.44,13.44,0,0,0-.4,1.33c-.11.3-.21.66-.31,1-.05.15-.1.35-.15.51a7.13,7.13,0,0,0-.21,1c0,.1,0,.25-.1.35a2.67,2.67,0,0,1-.1.62c-.05.2-.1.35-.15.56a2.31,2.31,0,0,1-.11.56,8.85,8.85,0,0,1-.2,1,2.77,2.77,0,0,1-.1.56.93.93,0,0,1-.1.35c0,.11-.06.21-.06.31a1.23,1.23,0,0,1-.1.41v.25c-.05.16-.1.31-.15.51a.81.81,0,0,0-.05.36c0,.05,0,.1,0,.2a1.59,1.59,0,0,0-.1.46l-.16.67c0,.25-.1.45-.15.71s-.05.31-.05.46l-.05.1c0,.26-.1.56-.16.87a2.13,2.13,0,0,0-.1.56.38.38,0,0,0-.1.25c-.05.26-.1.51-.15.72a.3.3,0,0,1-.05.2,2.2,2.2,0,0,1-.11.56c-.05.16-.05.31-.1.46s-.05.26-.05.41a1.52,1.52,0,0,0-.1.46c-.05.25-.1.61-.2,1a4,4,0,0,0-.11.51l-.15.61a2.66,2.66,0,0,1-.1.56,1.84,1.84,0,0,1-.1.51c0,.1,0,.15-.05.2v.41a1.3,1.3,0,0,0,0,.41V43a3.93,3.93,0,0,0,.15,1v.1a3.68,3.68,0,0,0,.15.41.18.18,0,0,0,.05.15,1.45,1.45,0,0,0,.26.51.4.4,0,0,1,0,.41.55.55,0,0,1-.36.3h-.1c-.1,0-.26,0-.36,0a.17.17,0,0,1-.1-.05,2.2,2.2,0,0,1-.77-.2h-.05l-1-.46a4.26,4.26,0,0,0-1.12-.46,1.46,1.46,0,0,0-.46-.1c-.1,0-.2,0-.3,0a.86.86,0,0,0-.36.25h-.05a5.21,5.21,0,0,1-1.43.67,2.32,2.32,0,0,1-.56.05h-.31a2.06,2.06,0,0,1-.71-.15,1.85,1.85,0,0,0-.25-.06.05.05,0,0,1-.06-.05.38.38,0,0,0-.2-.1c-.05,0-.15-.1-.2-.15a.38.38,0,0,1-.21-.36.31.31,0,0,1,.21-.3,2,2,0,0,0,.86-1.38s0-.15.11-.21.05-.3.05-.45l0-.06c0-.15.05-.3.05-.4a1.91,1.91,0,0,0-.05-.56,3,3,0,0,1,0-.67,1,1,0,0,1,0-.35v-.26a.18.18,0,0,1-.05-.15c0-.1,0-.21-.06-.26v-.25a.15.15,0,0,0,0-.1v-.46c-.05-.21-.05-.41-.1-.61a1.48,1.48,0,0,1,0-.46c0-.16-.05-.31-.05-.46v-.41c0-.1,0-.2,0-.31v-.3a2.43,2.43,0,0,0-.05-.26,2.32,2.32,0,0,0-.16-.81v-.05l-.15-.77a.92.92,0,0,0,0-.36V33.6c-.05,0-.05-.1-.05-.15a.3.3,0,0,0-.05-.2V33a.85.85,0,0,0,0-.35v-.16c-.05-.05-.05-.1-.05-.2a1,1,0,0,1,0-.41c-.05-.05-.05-.1-.05-.2a5,5,0,0,1-.11-.51v-.1c0-.11,0-.21,0-.31v-.61a.18.18,0,0,1-.05-.15V30a2.28,2.28,0,0,0-.1-.56.45.45,0,0,1-.05-.25v-.26a.74.74,0,0,1,0-.35V28.4a.45.45,0,0,1-.05-.25c0-.15.05-.21,0-.31a.17.17,0,0,1-.06-.15,4.1,4.1,0,0,0-.15-1.17c0-.16,0-.31,0-.46a.58.58,0,0,0-.05-.26,1.92,1.92,0,0,0-.1-.51c0-.05-.05-.15-.05-.2,0-.31-.16-.56-.21-.82a8.33,8.33,0,0,0-.76-1.83,1.19,1.19,0,0,1-.15-.26c-.06-.1-.16-.2-.21-.3a1.62,1.62,0,0,0-.81-.62h-.06c-.05-.05-.15-.05-.2-.1s-.2-.1-.2-.2a.29.29,0,0,1,0-.31.73.73,0,0,1,.25-.3.42.42,0,0,0,.26-.11,2.35,2.35,0,0,1,.56-.2.15.15,0,0,1,.1-.05,1.52,1.52,0,0,1,.46-.1h.15c.05,0,.1-.05.15-.05h.05c.06,0,.11.05.16.05h.25c.1,0,.16.05.21.05s.3,0,.46,0a.18.18,0,0,0,.15.05,1.7,1.7,0,0,1,.81.31s.11,0,.16.1.1.05.15.05a.18.18,0,0,0,.15.05.65.65,0,0,0,.31-.05A5.33,5.33,0,0,0,143,20a2.47,2.47,0,0,1,1.07-.41,10,10,0,0,1,1.22-.1h.1a.43.43,0,0,1,.31.15.47.47,0,0,1,0,.36v.05s0,.05,0,.1a3.14,3.14,0,0,0-.46,1.23c-.05,0-.05.15-.1.25s-.05.26-.05.41a13.2,13.2,0,0,0,0,1.43,1.18,1.18,0,0,0,0,.41v1a1.46,1.46,0,0,1,.1.62,3.4,3.4,0,0,0,.05.71,1.44,1.44,0,0,1,.05.46c0,.2,0,.36.1.56a.7.7,0,0,0,0,.31.72.72,0,0,0,.06.35.65.65,0,0,0,.05.31v.2a7.07,7.07,0,0,0,.2,1v0a1,1,0,0,0,.05.36.34.34,0,0,0,.05.21v.45a2.4,2.4,0,0,1,0,.57v.4a.67.67,0,0,1,.05.31.89.89,0,0,0,.06.36,4,4,0,0,0,.1.61c0,.15.05.35.05.51a2.28,2.28,0,0,0,.1.56c0,.25,0,.46.1.66v.05c.05.26.05.46.1.67a.93.93,0,0,1,.06.4s.05.11.05.16,0,.2,0,.3.05.16.05.21,0,.2.1.3.05.31.1.46.05.26.05.36,0,.2.11.3v.16c.05,0,.05.1.05.2a2.2,2.2,0,0,0,.1-.56l.15-.76c.05-.11.05-.21.1-.31s.05-.26.05-.41l.16-.61,0-.26c.05-.2.05-.4.1-.61s0-.2.1-.3,0-.31,0-.46a1.59,1.59,0,0,0,.11-.51,3.45,3.45,0,0,0,.1-.36c.05-.25.1-.51.15-.71a1.06,1.06,0,0,0,.05-.36c0-.1,0-.26.1-.36s0-.2,0-.3a2.07,2.07,0,0,1,.06-.26c0-.1.05-.2.05-.3a4.13,4.13,0,0,1,.1-.41,2.43,2.43,0,0,1,.05-.26c0-.15,0-.3.1-.46a.18.18,0,0,1,.05-.15,3.44,3.44,0,0,1,.16-.76.7.7,0,0,0,0-.31c0-.05.05-.15.05-.2s0-.26,0-.36a1.52,1.52,0,0,0,.1-.46,4.13,4.13,0,0,0,.1-.41,1.92,1.92,0,0,1,.1-.51c0-.15.05-.3.05-.46a4.32,4.32,0,0,0,.16-.56c0-.2,0-.41.1-.66v-.15l.05-.05-.05-.06a.54.54,0,0,1,.05-.25c0-.2,0-.36,0-.51v-.2a1.05,1.05,0,0,0,.05-.41v-.21a1.28,1.28,0,0,0-.05-.61v-.1a2.46,2.46,0,0,0-.3-.77c-.06,0-.11-.15-.16-.2a2.34,2.34,0,0,0-.25-.46.54.54,0,0,1-.1-.3.86.86,0,0,1,.25-.36,2,2,0,0,1,.26,0,2.55,2.55,0,0,1,.56-.1.74.74,0,0,1,.35.05,1.68,1.68,0,0,1,1.07.46.59.59,0,0,0,.36.15,2.43,2.43,0,0,0,.26-.05l.46-.31h.05a1.84,1.84,0,0,1,1-.3h.2a1.24,1.24,0,0,1,.31.2A.31.31,0,0,1,154.37,20.35Z"/><path class="cls-2" d="M155.64,20.31a.27.27,0,0,1-.15.25,1,1,0,0,0-.41.51v.05c-.1.16-.15.31-.26.46a13.44,13.44,0,0,0-.4,1.33c-.11.31-.21.66-.31,1-.05.15-.1.36-.15.51a7.42,7.42,0,0,0-.21,1c-.05.1-.05.25-.1.36a2.68,2.68,0,0,1-.1.61c-.05.2-.1.35-.16.56a2.2,2.2,0,0,1-.1.56,8.4,8.4,0,0,1-.2,1,2.66,2.66,0,0,1-.1.56,1,1,0,0,1-.1.36c0,.1-.06.2-.06.3a1.17,1.17,0,0,1-.1.41v.26c0,.15-.1.3-.15.51a.74.74,0,0,0-.05.35c-.05.05-.05.1-.05.21a1.46,1.46,0,0,0-.1.46c-.06.2-.11.45-.16.66s-.1.46-.15.71,0,.31,0,.46l-.05.1c-.05.26-.1.56-.16.87a2.2,2.2,0,0,0-.1.56.39.39,0,0,0-.1.26c-.05.25-.1.51-.15.71a.3.3,0,0,1-.05.2,2.62,2.62,0,0,1-.11.56c-.05.16-.05.31-.1.46s0,.26,0,.41a1.52,1.52,0,0,0-.1.46,8.71,8.71,0,0,1-.21,1c-.05.15-.05.31-.1.51l-.15.61a2.66,2.66,0,0,1-.1.56,1.78,1.78,0,0,1-.1.51c0,.1,0,.16,0,.21v.4a1.12,1.12,0,0,0-.06.41V43a3.91,3.91,0,0,0,.16,1v.1a3.06,3.06,0,0,0,.15.41.18.18,0,0,0,0,.15,1.37,1.37,0,0,0,.26.51.4.4,0,0,1,0,.41.58.58,0,0,1-.36.31h-.1c-.1,0-.26,0-.36,0s-.1-.06-.1-.06a2.2,2.2,0,0,1-.77-.2h-.05c-.3-.15-.66-.3-1-.46a4.26,4.26,0,0,0-1.12-.46,1.46,1.46,0,0,0-.46-.1c-.1,0-.2,0-.3,0a.8.8,0,0,0-.36.26h0a5.16,5.16,0,0,1-1.43.66,2.32,2.32,0,0,1-.56,0h-.31a2,2,0,0,1-.71-.15,2.17,2.17,0,0,0-.25,0,.05.05,0,0,1-.06-.05.4.4,0,0,0-.2-.11s-.15-.1-.2-.15a.37.37,0,0,1-.21-.36.31.31,0,0,1,.21-.3A2,2,0,0,0,143,43c.05,0,.05-.15.1-.2s.06-.31.06-.46l.05-.05c0-.16.05-.31.05-.41a2,2,0,0,0-.05-.56,2.9,2.9,0,0,1,0-.66,1.06,1.06,0,0,1-.05-.36V40a.17.17,0,0,1-.06-.15.37.37,0,0,0,0-.25v-.26a.15.15,0,0,0-.05-.1v-.46c0-.2,0-.41-.1-.61a1.48,1.48,0,0,1-.05-.46c0-.15,0-.31,0-.46v-.41c0-.1-.05-.2-.05-.3v-.31c0-.1,0-.2,0-.26a2.32,2.32,0,0,0-.16-.81v-.05l-.15-.77a.85.85,0,0,0-.05-.35v-.46s0-.1,0-.16a.3.3,0,0,0-.05-.2V33a.87.87,0,0,0-.05-.36V32.5s0-.11,0-.21a1,1,0,0,1-.05-.41c-.06-.05-.06-.1-.06-.2s0-.31-.1-.51v-.1c0-.1-.05-.21-.05-.31v-.61a.18.18,0,0,1,0-.15V30a2.13,2.13,0,0,0-.1-.56.5.5,0,0,1-.05-.26v-.25a.81.81,0,0,1-.05-.36v-.15a.5.5,0,0,1,0-.26c0-.15,0-.2,0-.31a.17.17,0,0,1-.06-.15,4.15,4.15,0,0,0-.15-1.17c0-.15,0-.31,0-.46a.54.54,0,0,0-.05-.25,1.91,1.91,0,0,0-.1-.52c0-.05-.05-.15-.05-.2,0-.3-.16-.56-.21-.82a8.33,8.33,0,0,0-.76-1.83,1.33,1.33,0,0,1-.16-.26c-.05-.1-.15-.2-.2-.3a1.53,1.53,0,0,0-.82-.61h0c-.05-.05-.15-.05-.2-.11s-.2-.1-.2-.2a.29.29,0,0,1,0-.31.73.73,0,0,1,.25-.3.43.43,0,0,0,.26-.1,2,2,0,0,1,.56-.21.15.15,0,0,1,.1-.05,1.46,1.46,0,0,1,.46-.1h.15s.1-.05.15-.05h0c.05,0,.11.05.16.05H141c.1,0,.16,0,.21,0s.3.05.46.05a.18.18,0,0,0,.15.05,1.7,1.7,0,0,1,.81.31c0,.05.11.05.16.1s.1.05.15.05a.18.18,0,0,0,.15.05.67.67,0,0,0,.31-.05,4.65,4.65,0,0,0,.87-.46,2.6,2.6,0,0,1,1.07-.41,9.87,9.87,0,0,1,1.22-.1h.1a.41.41,0,0,1,.31.16A.44.44,0,0,1,147,20v.05c-.05,0-.05.05-.05.11a3,3,0,0,0-.46,1.22c-.05.05-.05.15-.1.25s-.05.26-.05.41a13.2,13.2,0,0,0-.05,1.43,1.15,1.15,0,0,0,.05.41v1a1.41,1.41,0,0,1,.1.61,3.4,3.4,0,0,0,.05.71,1.48,1.48,0,0,1,0,.46c.05.21.05.36.1.56a.67.67,0,0,0,0,.31.78.78,0,0,0,.06.36.63.63,0,0,0,.05.3v.21a7.65,7.65,0,0,0,.2,1v.05a1,1,0,0,0,.05.35.33.33,0,0,0,0,.21v.46a2.28,2.28,0,0,1,.05.56v.41a.63.63,0,0,1,0,.3,1,1,0,0,0,.05.36,4,4,0,0,0,.11.61c0,.15,0,.36,0,.51a2.2,2.2,0,0,0,.1.56c.05.26.05.46.1.66v0c0,.26,0,.46.1.67a1.13,1.13,0,0,1,0,.41s.06.1.06.15.05.2.05.3,0,.16,0,.21.05.2.1.3,0,.31.1.46,0,.26,0,.36.05.2.1.31v.15c.06.05.06.1.06.2a2.13,2.13,0,0,0,.1-.56l.15-.76c0-.1,0-.21.1-.31s0-.25,0-.41.11-.4.16-.61l0-.25c.05-.21.05-.41.1-.62s.05-.2.1-.3,0-.31,0-.46a1.54,1.54,0,0,0,.1-.51,1.73,1.73,0,0,0,.11-.36c0-.25.1-.51.15-.71a1,1,0,0,0,0-.36c.05-.1.05-.25.1-.35s.05-.21.05-.31.05-.2.05-.26.06-.2.06-.3,0-.31.1-.41a2.17,2.17,0,0,1,0-.25c.05-.16.05-.31.1-.46a.2.2,0,0,1,0-.16,4.09,4.09,0,0,1,.15-.76.57.57,0,0,0,.06-.31c0-.05,0-.15,0-.2s.05-.26.05-.36a1.46,1.46,0,0,0,.1-.46,4.13,4.13,0,0,0,.1-.41,1.92,1.92,0,0,1,.1-.51c0-.15,0-.3,0-.45s.11-.36.16-.57.05-.4.1-.66v-.15l0-.05,0-.05a.58.58,0,0,1,0-.26c0-.2.05-.35.05-.51v-.2a1,1,0,0,0,0-.41v-.2a1.31,1.31,0,0,0,0-.62V22a2.22,2.22,0,0,0-.31-.76c-.05-.05-.1-.16-.15-.21a2.34,2.34,0,0,0-.25-.46.54.54,0,0,1-.1-.3.93.93,0,0,1,.25-.36,2.17,2.17,0,0,1,.25-.05,2.74,2.74,0,0,1,.57-.1.74.74,0,0,1,.35.05,1.68,1.68,0,0,1,1.07.46.59.59,0,0,0,.36.15c.1,0,.2-.05.26-.05l.45-.31H154a1.84,1.84,0,0,1,1-.3h.2a1.24,1.24,0,0,1,.31.2A.32.32,0,0,1,155.64,20.31Z"/><path class="cls-4" d="M6.75,47.07a2.94,2.94,0,0,1-1.32-.26c-.21-.1-.41-.2-.67-.31-.1,0-.15,0-.25,0a.35.35,0,0,0-.31,0,4.75,4.75,0,0,1-1.12.67,1.85,1.85,0,0,1-.56.2c-.21.05-.36,0-.56.05a3.49,3.49,0,0,1-1.43-.3c-.1,0-.15-.21-.2-.31a.38.38,0,0,1,.1-.2l.2-.21a.7.7,0,0,0,.31-.46,7,7,0,0,0,.56-1.73l.15-.76a4.72,4.72,0,0,0,.1-1.74c-.05-.51-.05-1-.05-1.58a.54.54,0,0,1,.05-.25v-.11a1.65,1.65,0,0,1-.05-.71,15.17,15.17,0,0,0,.05-1.63,2.81,2.81,0,0,0,.06-1,1.87,1.87,0,0,0-.11-.77v-.1c-.05-.76-.05-1.53-.05-2.29,0-.26.05-.56.05-.82a.72.72,0,0,0,0-.46v-.1a.91.91,0,0,0,0-.76,6.24,6.24,0,0,0-.05-1c0-.16,0-.26,0-.41s0-.26-.05-.36v-.1c.05-.77-.05-1.53-.05-2.3.05-.5,0-1,0-1.52,0-.36-.05-.67-.05-1a4.59,4.59,0,0,0-.1-.82,4.06,4.06,0,0,0-.11-.82c0-.3-.05-.56-.05-.81S1,21.47.94,21.16s-.21-.71-.31-1a1.73,1.73,0,0,0-.51-.82.32.32,0,0,1,0-.45c0-.06.1-.11.15-.11A4.19,4.19,0,0,1,1,18.61a3.17,3.17,0,0,1,.71.05,2.81,2.81,0,0,1,.67.05,1.92,1.92,0,0,1,.56.1A8.79,8.79,0,0,1,4,19.32l.66.36a.47.47,0,0,0,.56-.05,5.82,5.82,0,0,1,1.68-1c.21-.1.46-.15.72-.25s.3-.11.46-.11a2.21,2.21,0,0,0,.81,0,.3.3,0,0,1,.31.16.27.27,0,0,1-.1.4L8.94,19a2.74,2.74,0,0,0-.76,1.27,3.45,3.45,0,0,0-.1.36,3.17,3.17,0,0,0-.05.71.56.56,0,0,1-.06.31c0,.15.06.25.06.36a5.79,5.79,0,0,0,.15,1,8.85,8.85,0,0,0,.41,1.63c.15.46.35,1,.51,1.43.1.2.15.45.25.61.26.46.46,1,.66,1.42s.26.57.36.87a7.37,7.37,0,0,1,.51,1.18c.21.45.41.91.66,1.37.31.66.62,1.38,1,2,.16.31.31.66.46,1a7.89,7.89,0,0,0,.46.92c.05,0,.1.05.15.1h.06v0a3.86,3.86,0,0,0,0-.76c-.06-.06,0-.11,0-.16V34a12.55,12.55,0,0,0-.16-1.32c0-.21-.1-.41-.05-.57a11.13,11.13,0,0,1,0-1.27,1.72,1.72,0,0,1-.05-.71c-.05-.21,0-.36-.05-.57,0-.05.05-.1.05-.15-.05-.2,0-.41-.05-.66v-.15a5.65,5.65,0,0,1,0-.92c0-.31,0-.61,0-1a1.27,1.27,0,0,1-.05-.61,4.52,4.52,0,0,0,.05-.82,2.12,2.12,0,0,0-.05-.56c0-.2,0-.41,0-.61s0-.15,0-.26a4.12,4.12,0,0,0-.21-1.12,7,7,0,0,0-.3-.92A4.8,4.8,0,0,0,12,20.75a4.79,4.79,0,0,0-1.27-1c-.26-.15-.31-.35-.1-.56a2.64,2.64,0,0,1,.66-.41,9.29,9.29,0,0,1,1.12-.3,2.26,2.26,0,0,1,.82,0,5.88,5.88,0,0,1,1.58.3,1,1,0,0,0,.76-.05c.26-.1.51-.25.77-.35a3,3,0,0,1,.87-.36A1.31,1.31,0,0,1,18,18a.26.26,0,0,1,.2.1.24.24,0,0,1,0,.41,2.17,2.17,0,0,0-.35.3,2.45,2.45,0,0,0-.51.72,3.26,3.26,0,0,0-.36,1,4.15,4.15,0,0,0-.25,1.07,2.18,2.18,0,0,0-.11.61.31.31,0,0,0-.05.21v.71a2.18,2.18,0,0,1-.1.82v.86c0,.92-.1,1.84-.05,2.76A13.38,13.38,0,0,0,16.34,29a7.81,7.81,0,0,0-.05,1.08,9.88,9.88,0,0,1,.05,1.22.73.73,0,0,1,0,.56v.82c0,.35-.05.71-.05,1.07s0,.51-.05.76,0,.56,0,.82c.1.71,0,1.37.1,2.09a4.15,4.15,0,0,0,.05.81v.82a5.68,5.68,0,0,1,.05.92,7,7,0,0,1,.1,1,2.51,2.51,0,0,1,.05.61c.05.31.05.61.1.92A7.48,7.48,0,0,0,17,43.9c.1.36.21.72.31,1.08s.3.81.46,1.22l.3.46a3.52,3.52,0,0,1,.36.56c0,.05.05.1,0,.15s-.05.21-.15.26a.3.3,0,0,1-.21.1c-.2,0-.41.15-.66.05,0-.05-.05,0-.1,0a4.59,4.59,0,0,1-1.43-.31c-.41-.15-.82-.3-1.28-.51a4.92,4.92,0,0,1-1.12-.66,1.44,1.44,0,0,1-.61-.61A13,13,0,0,1,11.6,44a8.27,8.27,0,0,1-.51-1l-.92-1.69c-.31-.46-.51-1-.77-1.42a2.06,2.06,0,0,0-.3-.57c-.31-.61-.56-1.27-.92-1.83a3.38,3.38,0,0,1-.36-.71c-.15-.31-.25-.62-.41-.92-.35-.61-.61-1.23-.91-1.84S6,32.94,5.73,32.38a12.12,12.12,0,0,0-.56-1.22,1.07,1.07,0,0,0-.36-.51c0-.06,0-.06,0-.11s-.15-.1-.2-.05-.15.1-.15.21a1.17,1.17,0,0,0,0,.61v.2a12.73,12.73,0,0,1,0,1.38v1.38c0,.3,0,.56,0,.81a4,4,0,0,0,0,.77,2.68,2.68,0,0,0,.1.61v2.45A7.2,7.2,0,0,0,4.66,40a5.8,5.8,0,0,1,.2.92c.11.45.26.91.36,1.42a10.48,10.48,0,0,0,.51,1.33,7.86,7.86,0,0,0,.51.87c.26.35.51.71.77,1.12l.15.15c.15.21.36.41.51.61a.43.43,0,0,1-.15.67H6.75Z"/><path class="cls-5" d="M35.36,33.35v.46a.3.3,0,0,0,0,.2,1.15,1.15,0,0,1-.05.41v0c0,.15,0,.31,0,.41V35a1.44,1.44,0,0,1-.05.46v0a1.77,1.77,0,0,1,0,.51v.46a1.59,1.59,0,0,1-.11.56,3.13,3.13,0,0,1-.1.72.18.18,0,0,1,0,.15.63.63,0,0,1-.05.3,1.46,1.46,0,0,1-.1.46,3.28,3.28,0,0,1-.31.87c0,.1,0,.15,0,.2a5.78,5.78,0,0,1-.25.67l-.16.35a3.28,3.28,0,0,0-.15.36.38.38,0,0,0-.1.2,7,7,0,0,0-.36.87l-.3.46-.05.1a1,1,0,0,0-.26.41l-.46.61-.3.46A3.83,3.83,0,0,1,31,45l-.05,0a7.33,7.33,0,0,1-1.08.56c-.1,0-.15,0-.25,0l-.31.15h-.1a12.24,12.24,0,0,1-1.48,0h-.66a.7.7,0,0,1-.31,0h-.15c-.1-.05-.25-.05-.36-.1a.93.93,0,0,0-.35-.1.17.17,0,0,0-.11,0,7,7,0,0,1-1.12-.46,6.73,6.73,0,0,1-.76-.51c-.05,0-.16-.1-.21-.15a.78.78,0,0,0-.25-.21.66.66,0,0,0-.21-.2l-.1-.05a6,6,0,0,1-1-.92,5.09,5.09,0,0,1-.76-1.23.71.71,0,0,1-.1-.3c-.05-.15-.11-.26-.16-.41s-.15-.41-.25-.66a.56.56,0,0,0-.15-.36,5.61,5.61,0,0,1-.21-1c-.05,0-.05-.15-.1-.2-.05-.26-.1-.56-.15-.82v-.25a1.59,1.59,0,0,1-.1-.46,2.42,2.42,0,0,0-.06-.66c0-.11-.05-.21-.05-.31V36.2a.85.85,0,0,1,0-.35v-.46c0-.51,0-1.07,0-1.58V33.3a.67.67,0,0,0,.05-.31,1.12,1.12,0,0,1,.06-.41v-.1a3.65,3.65,0,0,1,0-.81,1.41,1.41,0,0,1,0-.46,4.47,4.47,0,0,1,.05-.87c.05-.15.05-.31.1-.46a.54.54,0,0,1,.05-.25v-.11c0-.1,0-.2,0-.3s0-.21,0-.31a0,0,0,0,0,.05-.05v-.41c.05-.2.05-.35.1-.56a.39.39,0,0,0,.06-.25.33.33,0,0,0,.05-.21,3.19,3.19,0,0,1,.1-.35c0-.11.05-.16.05-.26s.05-.15.1-.25.1-.41.1-.62a4.59,4.59,0,0,1,.31-.86l.15-.31c.05-.15.1-.3.16-.46a7.48,7.48,0,0,1,.5-1.07c.26-.56.57-1.07.82-1.53a5.59,5.59,0,0,1,.92-1c.15-.1.25-.2.41-.3a2.52,2.52,0,0,1,1.22-.72c.26-.05.51-.15.77-.2a.3.3,0,0,1,.2-.05,2.2,2.2,0,0,0,.56-.1h.15a1,1,0,0,1,.41-.06h.15c.21,0,.41-.05.62-.05h1a.17.17,0,0,1,.1.05h.36c.05.06.1.06.2.06h.15a3.31,3.31,0,0,1,1.38.61,1.24,1.24,0,0,1,.31.2c.05,0,.1.1.15.1l.15.16A5,5,0,0,1,33.32,22a4.31,4.31,0,0,1,.41,1,1.76,1.76,0,0,1,.2.56A1.34,1.34,0,0,0,34,24a.38.38,0,0,1,.05.2l.15.46c0,.2.15.41.2.66v.1c.05.26.11.46.16.72a1.77,1.77,0,0,0,.15.66c0,.1,0,.2,0,.31s.05.1.05.15A3.57,3.57,0,0,1,35,28c0,.16,0,.31.11.46a.22.22,0,0,0,0,.16v.15a3.53,3.53,0,0,1,.1.66c0,.15,0,.31,0,.46v.36a2.51,2.51,0,0,1,.05.61v1.73a1.48,1.48,0,0,1,0,.46ZM28.78,21.57v0h-.56a1.73,1.73,0,0,0-.61.3l-.05.06a.79.79,0,0,1-.31.3,1.82,1.82,0,0,0-.61.77c-.15.35-.36.71-.51,1.12a4.4,4.4,0,0,0-.2,1.12v.05a.15.15,0,0,1-.05.1c0,.16-.05.31-.05.51s-.06.11-.06.16c0,.2-.05.46-.05.66v.15a.9.9,0,0,0,0,.36v.31l-.05.15a4.41,4.41,0,0,1-.05.81c0,.16-.05.31-.05.41a1.44,1.44,0,0,1-.05.46v.56l0,.1v2.2a2.9,2.9,0,0,0,0,.66v1a5.65,5.65,0,0,0,0,.92v.4a1,1,0,0,0,0,.41,1.33,1.33,0,0,1,.05.41v.2a1.57,1.57,0,0,0,.05.51,1.91,1.91,0,0,0,.05.51,1.27,1.27,0,0,0,.05.41,1.13,1.13,0,0,0,0,.41,2.32,2.32,0,0,0,.05.56.47.47,0,0,1,.11.36.63.63,0,0,0,.05.3c.2.51.35,1,.51,1.48v0a3.53,3.53,0,0,0,.41,1c0,.1,0,.16.1.21a2.34,2.34,0,0,0,.25.46c.16.25.31.61.61.76.06.05.06.05.11.05a.27.27,0,0,0,.2.15h.26a.63.63,0,0,0,.3,0,1.52,1.52,0,0,0,.51-.25,1.19,1.19,0,0,1,.26-.31c.05-.05.1-.15.15-.2a.47.47,0,0,0,.15-.26,14.3,14.3,0,0,0,.51-1.42l0-.06c0-.15.05-.3.05-.4a8.6,8.6,0,0,1,.16-.87c.05-.2.1-.41.15-.66a2.17,2.17,0,0,1,.1-.51v-.26c.05,0,.05-.1.05-.2v-.15a.92.92,0,0,0,.05-.36c.06,0,.06-.1.06-.21A.54.54,0,0,1,31,37v-.31a.63.63,0,0,1,.05-.3V36.1a.63.63,0,0,1,0-.3v-.67a.3.3,0,0,0,.05-.2v-.26a6.57,6.57,0,0,1-.05-1,1,1,0,0,0,0-.35,4.48,4.48,0,0,1,0-.82.63.63,0,0,1-.05-.3v-.11s-.05-.1-.05-.2a.76.76,0,0,0-.06-.36c0-.1-.05-.2-.05-.3V31a.76.76,0,0,1-.05-.36v-.05c-.05-.15-.05-.35-.1-.51v-.15c0-.36-.1-.61-.1-.87A33.55,33.55,0,0,0,29.8,23c-.05-.16,0-.31-.05-.51a.19.19,0,0,0-.05-.16c0-.1-.05-.15-.1-.25a1.13,1.13,0,0,0-.46-.31A.54.54,0,0,0,28.78,21.57Z"/><path class="cls-6" d="M53,45.79v.05c0,.1,0,.16-.16.21v.05a.71.71,0,0,1-.3.1H52.4a.34.34,0,0,1-.21,0,.45.45,0,0,1-.25,0h-.11a3,3,0,0,1-1.22-.26,5.63,5.63,0,0,1-1.17-.45,5.25,5.25,0,0,1-1-.62h-.05a1.76,1.76,0,0,1-.56-.56A6.1,6.1,0,0,1,47,43.24a1.68,1.68,0,0,0-.36-.51l-.3-.61c-.05-.1-.1-.15-.16-.26-.3-.56-.56-1.07-.81-1.47s-.36-.72-.51-1l-.15-.31a.34.34,0,0,0-.11-.2.8.8,0,0,1-.1-.31c-.15-.2-.25-.46-.41-.66a3.76,3.76,0,0,0-.45-.92,1.57,1.57,0,0,1-.21-.46s0-.15-.1-.2a.43.43,0,0,1-.1-.26,5.63,5.63,0,0,1-.31-.56c-.2-.36-.36-.76-.56-1.17a1.88,1.88,0,0,0-.25-.46c-.21-.46-.41-1-.62-1.48l-.3-.61c0-.16-.16-.31-.21-.46a.84.84,0,0,0-.2-.36l-.1-.1,0-.05h-.05V31a.67.67,0,0,0,.05.31v.92a2.09,2.09,0,0,0-.05.56V34a.9.9,0,0,0,.05.36v1c0,.1,0,.15,0,.2v.31a.3.3,0,0,1,.05.2v2a5.78,5.78,0,0,0,.1,1s.05.15.05.2a2.74,2.74,0,0,1,.1.57c.11.46.21.91.31,1.27s.31.82.46,1.17a4.4,4.4,0,0,0,.41.72l0,.05c.1.15.2.36.3.51s.26.3.36.46.05.1.05.15h0c.16.15.31.36.46.51a.57.57,0,0,1,.15.46.45.45,0,0,1-.3.36.39.39,0,0,1-.21.05h-.66a2.67,2.67,0,0,1-1.12-.26.71.71,0,0,0-.31-.1,1.09,1.09,0,0,1-.25-.15h-.1c-.05,0-.11,0-.16,0h0a.15.15,0,0,0-.1,0,7.46,7.46,0,0,1-1,.61,1.17,1.17,0,0,1-.41.1.18.18,0,0,1-.15.05.65.65,0,0,1-.31,0h-.35A4.73,4.73,0,0,1,37,45.64a.6.6,0,0,1-.25-.36c-.05-.15,0-.25.1-.36l.21-.2c.1,0,.15-.2.2-.36a9.15,9.15,0,0,0,.51-1.53.85.85,0,0,0,.05-.35c0-.11,0-.21.1-.31A5.18,5.18,0,0,0,38,40.64a5.62,5.62,0,0,1-.05-.92v-.51A.54.54,0,0,1,38,39a1.64,1.64,0,0,1-.05-.51v-.16c0-.25.05-.5.05-.71a3.86,3.86,0,0,0,0-.76v0a1.84,1.84,0,0,0,0-.52V36a2.94,2.94,0,0,0,0-.66c-.05,0-.05,0-.05-.11V32.74c0-.16.05-.26.05-.36v-.31c-.05-.1-.05-.15,0-.2a.73.73,0,0,0-.05-.56v-.1c.05-.11,0-.26,0-.41a1.42,1.42,0,0,1,0-.46.18.18,0,0,0,0-.15v-.26c0-.1,0-.15,0-.2V28.55a6.84,6.84,0,0,1-.05-1V26.16a1.57,1.57,0,0,0,0-.51v-.31a1.48,1.48,0,0,0-.05-.46.63.63,0,0,0,0-.3,2.47,2.47,0,0,0,0-.61v-.11a.47.47,0,0,1-.06-.25c0-.15,0-.31,0-.46a3.28,3.28,0,0,0-.2-.82,1.55,1.55,0,0,1-.1-.4,3.45,3.45,0,0,0-.16-.51,1.5,1.5,0,0,0-.4-.67c-.21-.2-.26-.41-.05-.61a.69.69,0,0,1,.2-.15,3,3,0,0,1,.66-.1h.82c.15,0,.3.05.51.05,0,0,.05,0,.1,0a1.15,1.15,0,0,1,.41.05c.3.15.61.3,1,.46l.1.1c.15.1.31.15.46.25a.17.17,0,0,0,.15.06.48.48,0,0,0,.21-.11,4,4,0,0,1,1.47-.91c.06,0,.11-.05.16-.05a1.59,1.59,0,0,1,.51-.16,0,0,0,0,1,0-.05,1.13,1.13,0,0,1,.41-.05h.71a.42.42,0,0,1,.41.2.47.47,0,0,1-.1.56s0,.06-.11.06l0,.05a2.94,2.94,0,0,0-.66,1.07.18.18,0,0,1,0,.15v.15a1.8,1.8,0,0,0-.05.51v.41c0,.05,0,.1,0,.15v.16a2.59,2.59,0,0,0,.1.61v.2a5.05,5.05,0,0,0,.26.92c.05.15.1.36.15.51a6.17,6.17,0,0,0,.41,1.12l0,.16c0,.05.05.15.05.2a3.28,3.28,0,0,0,.15.36,7.79,7.79,0,0,1,.51,1.17l.05.1c0,.15.16.31.21.46a1.5,1.5,0,0,0,.15.26l.1.25a8.12,8.12,0,0,0,.36.87c.15.41.36.81.51,1.17s.3.61.46.92a8,8,0,0,0,.4.92,6.08,6.08,0,0,1,.41.91,4,4,0,0,0,.36.62.65.65,0,0,0-.05-.31v-.71a4.39,4.39,0,0,0-.15-1.13v-.05c0-.1,0-.15,0-.25v-.26a1.81,1.81,0,0,0-.06-.56,1.74,1.74,0,0,1,0-.51,1.41,1.41,0,0,1,0-.46v-.4a.47.47,0,0,0-.05-.26c0-.1,0-.2.05-.2v-.21a.63.63,0,0,0-.05-.3V28.1a1.91,1.91,0,0,0,0-.51v-.46a1.33,1.33,0,0,1,0-.41,2,2,0,0,0,0-.51V26a1.57,1.57,0,0,0,0-.51V25a.34.34,0,0,1-.05-.21v-.1a3.49,3.49,0,0,0-.15-.92.18.18,0,0,0,0-.15A2.84,2.84,0,0,0,47.6,23a3.06,3.06,0,0,0-.51-.92A3.34,3.34,0,0,0,46,21.16a.57.57,0,0,1-.25-.36.54.54,0,0,1,.15-.35,1.7,1.7,0,0,1,.66-.41,6.49,6.49,0,0,1,1-.31h0a1.44,1.44,0,0,1,.46-.05.7.7,0,0,1,.31.05h.2c.36.05.82.16,1.22.26,0,.05.11.05.21.05A1,1,0,0,0,50.3,20l.36-.21a1.19,1.19,0,0,0,.26-.15c.25-.1.56-.2.81-.31s.31-.05.51-.05a.67.67,0,0,1,.31.05.4.4,0,0,1,.2.11.45.45,0,0,1,.16.3.47.47,0,0,1-.16.36h0a1.09,1.09,0,0,0-.25.2c-.16.21-.31.41-.41.56-.1.36-.26.67-.36,1a.2.2,0,0,1,0,.16c-.05.25-.1.51-.15.71a.79.79,0,0,1,0,.36.3.3,0,0,1,0,.2v.82a3.47,3.47,0,0,1-.11.76v1.89A10.87,10.87,0,0,0,51.22,28V28a3.46,3.46,0,0,0,0,.72,2.32,2.32,0,0,1,0,.56v1.43c0,.2,0,.41,0,.56a1.41,1.41,0,0,1,0,.46v.1a2,2,0,0,0,0,.51v.2a1.12,1.12,0,0,1,0,.41,2.1,2.1,0,0,0,0,.56v.05a1.33,1.33,0,0,0-.05.41v.26a.45.45,0,0,1,0,.25v.41a7.67,7.67,0,0,1,0,1.07v1.12a1,1,0,0,0,.05.41V38a.37.37,0,0,0,0,.25v.67l.05.2a2.12,2.12,0,0,0,0,.56V40a1.85,1.85,0,0,0,.06.25v.31a.92.92,0,0,0,0,.36,1.24,1.24,0,0,0,0,.45.65.65,0,0,0,.05.31A9.15,9.15,0,0,0,51.89,43c0,.2.1.35.15.51.15.35.25.71.41,1.07a1,1,0,0,0,.2.3l.05.06V45a1,1,0,0,1,.31.51A.16.16,0,0,1,53,45.79Z"/><path class="cls-7" d="M69.48,33.35v.46a.3.3,0,0,0,0,.2,1.15,1.15,0,0,1-.05.41v0c0,.15,0,.31,0,.41V35a1.44,1.44,0,0,1,0,.46v0a1.77,1.77,0,0,1,0,.51v.46a1.86,1.86,0,0,1-.11.56,3.13,3.13,0,0,1-.1.72.18.18,0,0,1,0,.15.63.63,0,0,1,0,.3,1.46,1.46,0,0,1-.1.46,3.67,3.67,0,0,1-.31.87c0,.1,0,.15-.05.2a5.78,5.78,0,0,1-.25.67l-.16.35a3.28,3.28,0,0,0-.15.36.38.38,0,0,0-.1.2,5.73,5.73,0,0,0-.36.87l-.3.46-.06.1a1.13,1.13,0,0,0-.25.41l-.46.61c-.1.16-.2.31-.31.46a3.62,3.62,0,0,1-1,.77l-.06,0a6.75,6.75,0,0,1-1.07.56c-.1,0-.15,0-.25,0l-.31.15h-.1a12.24,12.24,0,0,1-1.48,0h-.66a.67.67,0,0,1-.31,0h-.15c-.1-.05-.26-.05-.36-.1a.93.93,0,0,0-.35-.1.19.19,0,0,0-.11,0,7,7,0,0,1-1.12-.46,6.73,6.73,0,0,1-.76-.51s-.16-.1-.21-.15a.78.78,0,0,0-.25-.21c0-.1-.16-.15-.21-.2l-.1-.05a6,6,0,0,1-1-.92,5.09,5.09,0,0,1-.76-1.23.71.71,0,0,1-.1-.3c0-.15-.11-.26-.16-.41s-.15-.41-.25-.66a.56.56,0,0,0-.15-.36,5.61,5.61,0,0,1-.21-1s0-.15-.1-.2c0-.26-.1-.56-.15-.82v-.25a1.62,1.62,0,0,1-.11-.46,2.89,2.89,0,0,0-.05-.66c0-.11,0-.21,0-.31V36.2a.85.85,0,0,1,0-.35v-.46c0-.51,0-1.07,0-1.58V33.3a.67.67,0,0,0,0-.31,1.33,1.33,0,0,1,.05-.41v-.1a4.37,4.37,0,0,1,0-.81,1.19,1.19,0,0,1,.06-.46,4.47,4.47,0,0,1,0-.87c0-.15,0-.31.1-.46a.54.54,0,0,1,0-.25v-.11c0-.1.05-.2.05-.3s0-.21,0-.31a0,0,0,0,0,0-.05v-.41c0-.2,0-.35.1-.56a.45.45,0,0,0,0-.25.29.29,0,0,0,.06-.21,3.19,3.19,0,0,1,.1-.35c0-.11,0-.16,0-.26s0-.15.1-.25.1-.41.1-.62a4.59,4.59,0,0,1,.31-.86l.15-.31.15-.46a8.79,8.79,0,0,1,.51-1.07c.26-.56.57-1.07.82-1.53a5.23,5.23,0,0,1,.92-1c.15-.1.25-.2.41-.3a2.52,2.52,0,0,1,1.22-.72c.25-.05.51-.15.76-.2a.34.34,0,0,1,.21-.05,2.2,2.2,0,0,0,.56-.1h.15a1,1,0,0,1,.41-.06h.15c.21,0,.41-.05.62-.05h1a.17.17,0,0,1,.1.05H64c.06.06.11.06.21.06h.15a3.31,3.31,0,0,1,1.38.61,1,1,0,0,1,.3.2c.06,0,.11.1.16.1l.15.16A5,5,0,0,1,67.44,22a4.83,4.83,0,0,1,.41,1,1.76,1.76,0,0,1,.2.56,1.34,1.34,0,0,0,.11.46.38.38,0,0,1,0,.2l.15.46c0,.2.15.41.2.66v.1c0,.26.1.46.16.72a1.77,1.77,0,0,0,.15.66c0,.1,0,.2,0,.31s0,.1,0,.15a3.57,3.57,0,0,1,.1.71c.05.16.05.31.1.46a.19.19,0,0,0,.06.16v.15a3.53,3.53,0,0,1,.1.66c0,.15,0,.31,0,.46v.36a2.51,2.51,0,0,1,.05.61v1.73a1.48,1.48,0,0,1,0,.46ZM62.9,21.57v0h-.56a1.73,1.73,0,0,0-.61.3l0,.06a.86.86,0,0,1-.31.3,1.82,1.82,0,0,0-.61.77c-.15.35-.36.71-.51,1.12a4.4,4.4,0,0,0-.2,1.12v.05a.15.15,0,0,1,0,.1c0,.16-.06.31-.06.51s0,.11,0,.16c0,.2,0,.46,0,.66v.15a.9.9,0,0,0-.05.36v.31l0,.15a4.41,4.41,0,0,1-.05.81c0,.16,0,.31,0,.41a1.44,1.44,0,0,1,0,.46v.56l-.05.1v2.2a2.9,2.9,0,0,0,0,.66v1a5.65,5.65,0,0,0,0,.92v.4a1,1,0,0,0,.05.41,1.33,1.33,0,0,1,0,.41v.2a1.57,1.57,0,0,0,0,.51,1.91,1.91,0,0,0,.05.51,1.27,1.27,0,0,0,0,.41,1.13,1.13,0,0,0,.05.41,2.32,2.32,0,0,0,0,.56A.47.47,0,0,1,60,39a.63.63,0,0,0,0,.3c.2.51.35,1,.51,1.48v0a3.83,3.83,0,0,0,.4,1c.06.1.06.16.11.21a2.34,2.34,0,0,0,.25.46,1.8,1.8,0,0,0,.61.76c0,.05,0,.05.11.05a.27.27,0,0,0,.2.15h.25a.65.65,0,0,0,.31,0,1.62,1.62,0,0,0,.51-.25,1.19,1.19,0,0,1,.26-.31c0-.05.1-.15.15-.2a.47.47,0,0,0,.15-.26,14.3,14.3,0,0,0,.51-1.42l.05-.06c0-.15,0-.3,0-.4a5.22,5.22,0,0,1,.16-.87c0-.2.1-.41.15-.66a2.17,2.17,0,0,1,.1-.51v-.26s0-.1,0-.2v-.15a.92.92,0,0,0,0-.36c.05,0,.05-.1.05-.21A.47.47,0,0,1,65.1,37v-.31a.63.63,0,0,1,.05-.3V36.1a.63.63,0,0,1,0-.3v-.67a.3.3,0,0,0,0-.2v-.26a6.57,6.57,0,0,1,0-1,1,1,0,0,0,0-.35,4.48,4.48,0,0,1,0-.82.63.63,0,0,1-.05-.3v-.11S65,32,65,31.87a.9.9,0,0,0-.05-.36c0-.1,0-.2,0-.3V31a.76.76,0,0,1,0-.36v-.05c0-.15,0-.35-.1-.51v-.15c0-.36-.1-.61-.1-.87A33.55,33.55,0,0,0,63.92,23c-.05-.16,0-.31-.05-.51a.19.19,0,0,0,0-.16c0-.1,0-.15-.1-.25a1.13,1.13,0,0,0-.46-.31A.56.56,0,0,0,62.9,21.57Z"/><path class="cls-8" d="M88.61,32.48a9.69,9.69,0,0,1-.31,2.7v.72a2.12,2.12,0,0,0-.1.76v.67l-.1.56a.56.56,0,0,0-.11.4c0,.36-.1.57-.1.87a8.42,8.42,0,0,1-.46,1.43,16.53,16.53,0,0,1-.76,1.89c-.21.4-.31.76-.51,1.17a3.58,3.58,0,0,0-.36.66L85,45.49l-.41.45a9.23,9.23,0,0,1-1,.87,4.64,4.64,0,0,1-1.28.56,3.76,3.76,0,0,1-.66.31,14.56,14.56,0,0,1-2.09,0h-.87l-.86-.31a6.47,6.47,0,0,1-1.28-.56,2,2,0,0,1-.76-.56l-.57-.41-.3-.25c-.36-.31-.77-.61-1.12-1a6.14,6.14,0,0,1-.77-1.38c-.1-.25-.2-.46-.3-.76a6.31,6.31,0,0,1-.46-1.23A4.38,4.38,0,0,1,72,40a4.48,4.48,0,0,1-.2-1.12,1.46,1.46,0,0,1-.1-.67c0-.2-.06-.4-.06-.66a.63.63,0,0,1-.1-.41,2.51,2.51,0,0,1,0-1.22V33.76c.1-.36,0-.56.1-.87.06-.1,0-.15,0-.26,0-.51.06-.86.06-1.37a2.74,2.74,0,0,1,.1-.87l.1-.76c0-.16.1-.36.1-.46v-.56a.39.39,0,0,0,.1-.21,1.75,1.75,0,0,1,.1-.76c0-.21.11-.41.11-.56l.15-.72.2-.92a2.58,2.58,0,0,1,.41-1l.26-.87.61-1.28.92-1.68c.1-.1.2-.31.4-.41a3.55,3.55,0,0,1,.87-.86h.1a1.7,1.7,0,0,1,.67-.57l.66-.3,1-.26h.2a2,2,0,0,0,.77-.2h.46c.51,0,1-.1,1.53-.1a2.68,2.68,0,0,1,.86.1,3.88,3.88,0,0,1,1.28.25l.76.41c.1.1.16.21.26.31l.41.25a9.61,9.61,0,0,1,1,1.38,6.5,6.5,0,0,1,.36,1.22l.21.67v1a1,1,0,0,1-.11.56l-.2.86-.26.41-.4.46c-.21.1-.46.31-.67.31a5.58,5.58,0,0,1-.86.25,3.5,3.5,0,0,1-.77-.05c-.3-.1-.46-.1-.76-.2a3.87,3.87,0,0,1-1-.41l-.66-.56v-.31c0-.1,0-.15.2-.25s.2,0,.25.1a.37.37,0,0,0,.41-.1,1.38,1.38,0,0,0,.87-1.28,2.39,2.39,0,0,0,.1-.86,4.81,4.81,0,0,0-.31-1.33l-.2-.31a2.28,2.28,0,0,0-.87-.56H80.6a.3.3,0,0,0-.26.1c-.2,0-.3.11-.51.21l-.66.56-.46.56c-.2.51-.41,1-.61,1.43a2.72,2.72,0,0,0-.15.61l-.21.87v.56l-.1.46a2.12,2.12,0,0,1-.1.76,3.68,3.68,0,0,1-.1,1.07v.77a1.41,1.41,0,0,0-.1.66v.87a2.28,2.28,0,0,0-.06.66c-.1,1.48-.1,3-.1,4.44v.1c.1.36,0,.76.1,1.12a3,3,0,0,0,.06.72v.66c0,.36.1.66.1,1l.2,1a1.15,1.15,0,0,0,.1.51v.35l.21.56c.15.41.25.72.35,1.08s.31,1,.51,1.42c.26.31.46.77.67,1.07a2.66,2.66,0,0,0,.76.77c.1,0,.21.1.36.1a1.75,1.75,0,0,0,.71-.1,1.77,1.77,0,0,0,.56-.46l.46-.51a2.28,2.28,0,0,0,.41-1c.1-.36.26-.76.36-1.22l.1-.56c.1-.41.2-.87.31-1.28v-.1c0-.26.1-.56.1-.77a.18.18,0,0,1,.1-.15c0-.2.05-.41.05-.61v-.46l.1-.87v-.1c0-.2.11-.56.11-.87a3.09,3.09,0,0,0,0-1v-.51a1.48,1.48,0,0,0-.62-.62h-.1a3.6,3.6,0,0,0-2.29.36l-.46.31a2.91,2.91,0,0,1-.41.3.33.33,0,0,1-.51-.3,4.25,4.25,0,0,1,.66-2,2.5,2.5,0,0,1,.36-.46,4.56,4.56,0,0,1,.25-.41c.77-.76.72-.92,4.39-1.12a13.74,13.74,0,0,0,1.43-.1,4.18,4.18,0,0,1,1.17-.05C88.66,30.85,88.66,31.82,88.61,32.48Z"/><path class="cls-9" d="M106.91,45.28a.48.48,0,0,1-.15.36,1,1,0,0,1-.41.15.45.45,0,0,1-.25.05.31.31,0,0,1-.21,0,.3.3,0,0,1-.2,0h-.56a4.56,4.56,0,0,1-1.43-.3,3.67,3.67,0,0,1-1.12-.66c-.31-.26-.61-.57-.87-.82a3.84,3.84,0,0,1-.61-.87,15.12,15.12,0,0,1-.92-2.34,14,14,0,0,1-.35-1.38l-.06-.1a9.06,9.06,0,0,0-.35-1.12,3.84,3.84,0,0,0-.46-.62s-.1,0-.15,0a.17.17,0,0,0-.11,0,1.3,1.3,0,0,0-.71.51,4.89,4.89,0,0,0-.71,1.64,1.15,1.15,0,0,0-.06.61.18.18,0,0,1,0,.15v.2a.22.22,0,0,1,0,.16,1.24,1.24,0,0,0,.06.46v.2c0,.26.1.51.15.71a2.74,2.74,0,0,1,.1.57,2.32,2.32,0,0,0,.21.66c.05.1.05.2.1.3s0,.16.15.21.1.1.1.15l.15.15a1.06,1.06,0,0,0,.31.21c.1,0,.2.1.31.2a.48.48,0,0,1,.1.51.44.44,0,0,1-.31.31,3.19,3.19,0,0,0-.35.1h-.21a1.41,1.41,0,0,1-.46,0H96.15c-.15,0-.3,0-.51,0a.45.45,0,0,1-.25-.05l-.92-.31c-.1,0-.15-.05-.25-.05a.92.92,0,0,0-.36.1l-.36.21c-.15,0-.25.15-.41.2a6.17,6.17,0,0,1-1.12.41h0a.76.76,0,0,1-.36,0h-.15s-.1.05-.15.05a3.57,3.57,0,0,1-.72-.1.5.5,0,0,1-.35-.51c0-.1,0-.15,0-.2l.2-.21s0-.1.1-.15a1.87,1.87,0,0,0,.36-.82,1.91,1.91,0,0,1,.21-.61,1,1,0,0,1,.1-.41c.05-.15.05-.3.1-.46a2.17,2.17,0,0,1,0-.25,1.3,1.3,0,0,0,0-.41c0-.15,0-.3.1-.46v-.15a2.91,2.91,0,0,1,0-.66,3,3,0,0,0,0-.67,1.15,1.15,0,0,0,0-.61v-.56a4.16,4.16,0,0,0,0-1.22,12.73,12.73,0,0,1,0-1.38v-.76c0-.16,0-.26,0-.36V35a2.94,2.94,0,0,0,0-.66V33.14a1.38,1.38,0,0,1-.05-.45.87.87,0,0,0,0-.36v-.56a1.13,1.13,0,0,0,0-.41V30.8a1.15,1.15,0,0,1,0-.41v-.2a1.33,1.33,0,0,1,0-.41v-1a1.77,1.77,0,0,0-.05-.51v-.56a1.44,1.44,0,0,0,0-.46V24A7.67,7.67,0,0,0,91,23c0-.11,0-.21-.1-.31a4.9,4.9,0,0,0-.2-.82,1.27,1.27,0,0,0-.1-.35,6.1,6.1,0,0,0-.57-.92c-.1-.1-.1-.26-.15-.36a.4.4,0,0,1,.31-.46l0-.05a2.27,2.27,0,0,1,.51-.1h0a.76.76,0,0,1,.36,0h.1a.63.63,0,0,0,.3,0,1.46,1.46,0,0,1,.46.1,6.66,6.66,0,0,1,1.18.41,2.33,2.33,0,0,1,.61.41c.1.1.25.1.41.15a.17.17,0,0,0,.1.05h.1a1.47,1.47,0,0,0,.66-.25,5.76,5.76,0,0,1,1.43-.61c.1,0,.21-.06.31-.06s.25-.05.35-.1.26-.05.36-.05h0a.22.22,0,0,0,.16-.05h.5c.06,0,.06,0,.11,0h.46a1.73,1.73,0,0,1,.51-.05h.25a3.28,3.28,0,0,1,.82.2l.15.05.61.16a3.45,3.45,0,0,1,.36.1.69.69,0,0,1,.2.15,2.91,2.91,0,0,1,.87.46,1.23,1.23,0,0,1,.36.36,2.26,2.26,0,0,0,.35.35c.11.05.16.11.16.16l.2.2a11.38,11.38,0,0,0,.71.92c.11.15.21.3.31.46a6.83,6.83,0,0,1,.71,1.53,3.8,3.8,0,0,1,.26.76v.16c0,.1,0,.2.1.3a.5.5,0,0,0,.05.26v.46a1.38,1.38,0,0,1,0,.45v.87c0,.31,0,.61,0,.92s0,.41-.1.61v.15c-.05.16-.05.31-.1.46s-.15.56-.25.92h-.06c-.1.26-.2.56-.3.82s-.26.51-.41.71a1.5,1.5,0,0,1-.15.26c-.16.3-.36.56-.51.86a5.69,5.69,0,0,1-.51.61,3.76,3.76,0,0,0-.36.41,2.85,2.85,0,0,1-.46.46.79.79,0,0,0-.05.36l.05,0a4.07,4.07,0,0,1,.66,1.07,3.54,3.54,0,0,1,.31.92c.1.41.2.76.31,1.17.05.1.05.2.1.31V39a15.15,15.15,0,0,1,.41,1.48c.15.61.35,1.22.56,1.83v0a4.89,4.89,0,0,0,.3.77s0,.1,0,.15.11.26.21.36.1.15.15.25a1.19,1.19,0,0,1,.15.26,1.61,1.61,0,0,1,.31.36c0,.05.1.15.2.25s.11.05.16.1h0l.15.16A.36.36,0,0,1,106.91,45.28ZM97.53,35a6.54,6.54,0,0,0,.87-.61,3.89,3.89,0,0,0,.61-.72,6.13,6.13,0,0,0,.36-.56,1.33,1.33,0,0,0,.25-.3,5.49,5.49,0,0,0,.72-1.43c0-.05,0-.2.1-.31s0-.2,0-.3a.19.19,0,0,0,.05-.16.37.37,0,0,0,0-.25l.15-.61a2.4,2.4,0,0,0,.16-.61,3.26,3.26,0,0,1,0-.67V28.2a8.32,8.32,0,0,0,0-1.12.47.47,0,0,0-.05-.26v-.41c0-.05-.06-.1-.06-.15a1.3,1.3,0,0,1-.05-.41.38.38,0,0,1,0-.2,7.86,7.86,0,0,0-.3-1,.39.39,0,0,0-.11-.21.71.71,0,0,0-.1-.3,4.67,4.67,0,0,0-.25-.51c0-.05-.05-.1-.1-.15a.38.38,0,0,0-.21-.26,1.23,1.23,0,0,1-.36-.36c-.05-.05-.15-.1-.2-.2a1.24,1.24,0,0,0-.36-.1h-.15a.17.17,0,0,1-.1.05.62.62,0,0,0-.41.25,1.93,1.93,0,0,1-.2.36,2.79,2.79,0,0,0-.36.71c0,.11,0,.16-.1.21s-.16.41-.21.56a7.35,7.35,0,0,0-.2,1,.54.54,0,0,0,0,.25c0,.31,0,.57-.1.77v.36c0,.15,0,.35,0,.56v.91a1.41,1.41,0,0,0,0,.46v3.11a10.14,10.14,0,0,0,0,1.18v1.43a.45.45,0,0,0,.25.4h.2Z"/><path class="cls-10" d="M165.29,24.32a.93.93,0,0,0,.1-.35,3,3,0,0,0-.51-1.69.5.5,0,0,0-.25-.2,1.63,1.63,0,0,0-.67-.15h-.2a2.15,2.15,0,0,0-.66.56,6.26,6.26,0,0,0-.36.56,4.79,4.79,0,0,0-.2.81c0,.36-.11.72-.16,1.13a.45.45,0,0,0,0,.25v.21a13.86,13.86,0,0,0-.05,1.47v1.23c0,.05-.05.15-.05.2a1.46,1.46,0,0,0,.1.67c0,.15,0,.25,0,.35s.05.21.11.31a1.91,1.91,0,0,0,.25.56,1.09,1.09,0,0,0,.15.25,1.51,1.51,0,0,0,.41.57.76.76,0,0,0,.66.3h.16s.15.05.2.05a1.08,1.08,0,0,0,.61-.2,1.3,1.3,0,0,0,.41-.36l.2-.2v0a2.74,2.74,0,0,0,.16-.92v-.15a1.73,1.73,0,0,1,.05-.51.65.65,0,0,1,.2-.51c.16-.21.41-.21.56-.26h.56a.73.73,0,0,1,.36.1s0,0,0,0a.48.48,0,0,1,.26.41c0,.1,0,.21,0,.31v1.17a8,8,0,0,1,0,1.07V33.2a5,5,0,0,1-.05.86v1.13a1.24,1.24,0,0,1,.05.4c0,.11,0,.16-.05.21v.66a1.07,1.07,0,0,1-.41.77.84.84,0,0,1-.66.3h-.26c-.25,0-.41-.15-.56-.46a1,1,0,0,1-.05-.41V36c.05-.05,0-.1,0-.15s-.05-.15-.05-.21v-.35a.47.47,0,0,0,0-.26c0-.1-.05-.25-.05-.35s-.11-.41-.21-.67l0-.05a1.16,1.16,0,0,0-.36-.31.54.54,0,0,0-.4-.1,4.65,4.65,0,0,0-.77.1h-.05v.06s-.1.05-.2.1-.16.15-.21.25-.1.16-.15.21-.15.15-.21.2-.05.1-.1.15a5.25,5.25,0,0,0-.35.77s0,0,0,.1a.82.82,0,0,0-.16.51.18.18,0,0,0-.05.15,2.28,2.28,0,0,0-.1.56,2,2,0,0,1,0,.77,14.61,14.61,0,0,0,0,1.48,9.42,9.42,0,0,1,0,1.68V41a3.37,3.37,0,0,0,0,.71V42a1.44,1.44,0,0,0,0,.46,5.84,5.84,0,0,0,.2,1.07,2.12,2.12,0,0,0,.36.51.66.66,0,0,0,.51.2h.15c.21,0,.41,0,.51-.15h.11a4.14,4.14,0,0,0,.71-.87.84.84,0,0,1,.1-.25.22.22,0,0,1,.05-.16,2.63,2.63,0,0,0,0-.91,1.23,1.23,0,0,0-.2-.61,2.36,2.36,0,0,0-.56-.67.41.41,0,0,1-.05-.61,1.65,1.65,0,0,1,.51-.36h0c.15-.05.3-.1.51-.15h.1c0-.05,0-.05.1-.05h.77a.93.93,0,0,1,.35.1,2.21,2.21,0,0,1,1,.51,9.11,9.11,0,0,1,.82,1,2.27,2.27,0,0,1,.31.77,2.06,2.06,0,0,1,.15.76.17.17,0,0,0,.05.1v.36a3,3,0,0,1-.46,1.58s-.05,0-.05.1v0a3.31,3.31,0,0,1-.56.62c0,.05-.1.05-.15.1s-.21.15-.26.2a3.81,3.81,0,0,1-1.07.51c-.2.1-.46.15-.71.26h-.31a1.77,1.77,0,0,0-.51.05c-.2,0-.36,0-.61,0a1.91,1.91,0,0,1-.51,0,4.59,4.59,0,0,1-.82-.1c-.05,0-.1-.06-.15-.06a6.45,6.45,0,0,1-.82-.2,4.46,4.46,0,0,1-1.17-.71l-.1-.05a8.81,8.81,0,0,1-.72-.67c0-.05-.1-.05-.15-.1s0-.1-.1-.1-.1-.1-.15-.1h-.11a1.26,1.26,0,0,0-.76.25,2.8,2.8,0,0,1-.56.31,2.43,2.43,0,0,0-.26,0,3.32,3.32,0,0,1-.66.2,2.22,2.22,0,0,1-.61.1c-.1,0-.26-.05-.36-.05a.15.15,0,0,0-.1,0H156a.46.46,0,0,1-.31-.4.4.4,0,0,1,.26-.41.41.41,0,0,0,.2-.21c.05,0,.05,0,.05,0a3.55,3.55,0,0,0,.51-1.12,3,3,0,0,0,.1-.66s.05-.1.05-.16v-.05a2.22,2.22,0,0,0,.11-.66v-.25c.05-.67.05-1.33.05-2V34a14.15,14.15,0,0,1,.05-1.48v-.45a3.94,3.94,0,0,1,0-.77,7.67,7.67,0,0,0,.05-1.07,1.44,1.44,0,0,1-.05-.46,8.4,8.4,0,0,0,.05-1.12,5.06,5.06,0,0,1,0-1.23,4.48,4.48,0,0,0-.1-.81c0-.26-.05-.46-.05-.72v-.3c0-.1-.05-.15-.05-.26v-.46a.54.54,0,0,1,0-.25.33.33,0,0,1-.06-.2v-.16a0,0,0,0,0-.05-.05,3.69,3.69,0,0,0-.2-1.07.71.71,0,0,0-.1-.3.71.71,0,0,0-.1-.31l-.16-.51a6.6,6.6,0,0,0-.51-1.33c-.05-.05-.05-.1-.1-.15s-.05-.05-.05-.1h0a.39.39,0,0,1-.1-.36.38.38,0,0,1,.3-.36c.11-.05.21-.05.31-.1h.36a1.49,1.49,0,0,1,.51-.1h0c.15,0,.3,0,.46.1h.05a3.19,3.19,0,0,1,.86.21l.06.05a1.64,1.64,0,0,1,.76.46,1.09,1.09,0,0,0,.25.15,3.94,3.94,0,0,0,1,.15h.25a2.18,2.18,0,0,0,.61-.15c.15-.05.31-.05.46-.1a2,2,0,0,1,.26,0,.18.18,0,0,0,.15-.05l.76-.16c.16-.05.36-.05.51-.1s.21-.05.31-.05a.92.92,0,0,0,.36,0c0-.05,0-.05.1-.05h1.12a2.82,2.82,0,0,1,1.12.3c.31.16.61.31.87.46.1.1.2.16.25.26a4.87,4.87,0,0,1,.67,1,3.6,3.6,0,0,1,.46,1.07c0,.1,0,.2.1.3v.05a.31.31,0,0,0,.05.21v.3a.17.17,0,0,0,0,.11v.2a3.38,3.38,0,0,1-.1.71c-.05,0-.05.06-.05.11s0,.15-.1.25a1.69,1.69,0,0,1-.41.61l-.1.11c0,.05-.06.1-.11.15l-.4.25h-.06a2.23,2.23,0,0,1-.66.31,2.52,2.52,0,0,1-.76.15,2,2,0,0,1-.26-.05,2.55,2.55,0,0,1-1.63-.81.8.8,0,0,1-.26-.62c.06-.15.21-.35.41-.35a0,0,0,0,1,.05.05h.05c.06,0,.11-.05.16-.05l0,0a1.76,1.76,0,0,0,.46-.51Z"/><path class="cls-2" d="M8,47a2.88,2.88,0,0,1-1.33-.26,7,7,0,0,0-.66-.3c-.1,0-.15,0-.25,0a.35.35,0,0,0-.31,0,5.07,5.07,0,0,1-1.12.66,1.85,1.85,0,0,1-.56.2c-.21.06-.36,0-.56.06a3.5,3.5,0,0,1-1.43-.31c-.1,0-.15-.2-.2-.31a.38.38,0,0,1,.1-.2l.2-.2a.79.79,0,0,0,.31-.46,7.07,7.07,0,0,0,.56-1.74l.15-.76A5.18,5.18,0,0,0,3,41.67c0-.51,0-1,0-1.58a.54.54,0,0,1,0-.25v-.1A1.7,1.7,0,0,1,3,39c0-.56.1-1.12,0-1.63a2.81,2.81,0,0,0,0-1,2,2,0,0,0-.1-.76v-.11c-.05-.76-.05-1.53-.05-2.29,0-.26.05-.56.05-.82A.72.72,0,0,0,3,32v-.1a1,1,0,0,0,0-.76,6.31,6.31,0,0,0-.05-1c0-.15,0-.26,0-.41s0-.25-.05-.36v-.1c.05-.76,0-1.53,0-2.29,0-.51,0-1,0-1.53s0-.67,0-1a4.59,4.59,0,0,0-.1-.82,4,4,0,0,0-.11-.81c0-.31,0-.56,0-.82s-.15-.61-.25-.92-.21-.71-.31-1a1.65,1.65,0,0,0-.51-.81.33.33,0,0,1,0-.46s.1-.1.15-.1a4.22,4.22,0,0,1,.77-.16,3.17,3.17,0,0,1,.71.05,2.25,2.25,0,0,1,.66.06,1.93,1.93,0,0,1,.57.1,6.57,6.57,0,0,1,1.07.51l.66.35a.44.44,0,0,0,.56-.05,5.82,5.82,0,0,1,1.68-1c.21-.1.46-.15.72-.25s.3-.1.46-.1a2.21,2.21,0,0,0,.81,0,.31.31,0,0,1,.31.15.28.28,0,0,1-.1.41l-.16.15a2.83,2.83,0,0,0-.76,1.28,3.19,3.19,0,0,0-.1.35,3.26,3.26,0,0,0,0,.72.54.54,0,0,1-.06.3c0,.15.06.26.06.36a5.63,5.63,0,0,0,.15,1,8.85,8.85,0,0,0,.41,1.63c.15.46.35,1,.51,1.43.1.2.15.46.25.61A15.19,15.19,0,0,1,11.28,28c.11.3.26.56.36.86a7.37,7.37,0,0,1,.51,1.18c.21.46.41.91.66,1.37.31.67.62,1.38,1,2,.16.31.31.67.46,1a7.18,7.18,0,0,0,.46.92c.05,0,.1.05.15.1h.05v0a3.22,3.22,0,0,0,0-.76c-.05,0,0-.1,0-.16V34a10.64,10.64,0,0,0-.15-1.32c0-.21-.1-.41-.05-.56a11.39,11.39,0,0,1,0-1.28,1.71,1.71,0,0,1-.05-.71c0-.21,0-.36,0-.56s0-.1,0-.16,0-.4,0-.66v-.15a5.65,5.65,0,0,1,0-.92c0-.31-.05-.61-.05-1a1.27,1.27,0,0,1-.05-.61,4.52,4.52,0,0,0,.05-.82,2.16,2.16,0,0,0-.05-.56c0-.2,0-.41,0-.61-.06,0,0-.15,0-.25a4.12,4.12,0,0,0-.21-1.13,5.43,5.43,0,0,0-.31-.91,4.06,4.06,0,0,0-.61-1.07,4.6,4.6,0,0,0-1.27-1c-.26-.16-.31-.36-.1-.57a2.33,2.33,0,0,1,.66-.4,7.79,7.79,0,0,1,1.12-.31,2.26,2.26,0,0,1,.82,0,5.53,5.53,0,0,1,1.58.31,1,1,0,0,0,.76-.05c.26-.11.51-.26.77-.36a3.42,3.42,0,0,1,.86-.36,1.35,1.35,0,0,1,.77,0,.26.26,0,0,1,.2.1.24.24,0,0,1,0,.41,2.2,2.2,0,0,0-.35.31,2.4,2.4,0,0,0-.51.71,3.26,3.26,0,0,0-.36,1A4.28,4.28,0,0,0,18,21.58a2.68,2.68,0,0,0-.1.61.34.34,0,0,0-.05.21v.71a2.18,2.18,0,0,1-.1.82v.86c0,.92-.1,1.84-.05,2.76A13.67,13.67,0,0,0,17.61,29a7.6,7.6,0,0,0-.05,1.07,10,10,0,0,1,.05,1.22.72.72,0,0,1,0,.56v.82c0,.35-.05.71-.05,1.07s0,.51,0,.76-.06.56-.06.82c.11.71,0,1.38.11,2.09a4.25,4.25,0,0,0,.05.82V39a5.68,5.68,0,0,1,.05.92,7,7,0,0,1,.1,1,2.51,2.51,0,0,1,0,.61c.05.31.05.61.1.92a7.8,7.8,0,0,0,.36,1.38c.1.35.2.71.31,1.07s.3.81.46,1.22l.3.46a3.52,3.52,0,0,1,.36.56s.05.1,0,.15-.05.21-.15.26a.3.3,0,0,1-.21.1c-.2,0-.41.15-.66.05,0-.05-.05,0-.1,0a4.87,4.87,0,0,1-1.43-.3c-.41-.16-.82-.31-1.28-.51a5.36,5.36,0,0,1-1.12-.67,1.38,1.38,0,0,1-.61-.61,13,13,0,0,1-1.27-1.73,8.27,8.27,0,0,1-.51-1c-.31-.56-.62-1.12-.92-1.68s-.51-1-.77-1.43a1.87,1.87,0,0,0-.3-.56c-.31-.61-.56-1.28-.92-1.84a3.15,3.15,0,0,1-.36-.71c-.15-.31-.25-.61-.41-.92-.35-.61-.61-1.22-.91-1.84S7.26,32.9,7,32.34a13.23,13.23,0,0,0-.56-1.22,1.07,1.07,0,0,0-.36-.51c0-.05,0-.05,0-.1s-.15-.11-.2-.05a.18.18,0,0,0-.16.2,1.16,1.16,0,0,0,.06.61v.21a12.67,12.67,0,0,1-.06,1.37v1.38c0,.3.06.56.06.81a3.31,3.31,0,0,0,0,.77,2.59,2.59,0,0,0,.1.61v2.45a7.08,7.08,0,0,0,.1,1.07,6.06,6.06,0,0,1,.2.92c.11.46.26.92.36,1.43A10.94,10.94,0,0,0,7,43.61a7.86,7.86,0,0,0,.51.87c.26.36.51.71.77,1.12l.15.15c.15.21.36.41.51.62a.42.42,0,0,1-.15.66H8Z"/><path class="cls-2" d="M36.63,33.31v.46a.3.3,0,0,0-.05.2,1.13,1.13,0,0,1,0,.41v0c0,.16-.05.31-.05.41V35a1.41,1.41,0,0,1,0,.46v0a1.73,1.73,0,0,1,0,.51v.46a1.79,1.79,0,0,1-.11.56,3.13,3.13,0,0,1-.1.72.18.18,0,0,1-.05.15.7.7,0,0,1,0,.31,1.59,1.59,0,0,1-.1.46,3.61,3.61,0,0,1-.31.86c0,.1,0,.16,0,.21a6.47,6.47,0,0,1-.25.66c0,.1-.11.25-.16.36a2.44,2.44,0,0,0-.15.35.41.41,0,0,0-.1.21,5.24,5.24,0,0,0-.36.86l-.3.46-.06.1a1.22,1.22,0,0,0-.25.41c-.15.21-.31.41-.46.61s-.2.31-.31.46a3.62,3.62,0,0,1-1,.77l-.06,0a6.75,6.75,0,0,1-1.07.56c-.1,0-.15,0-.25,0l-.31.15h-.1a10.21,10.21,0,0,1-1.48.06h-.66A.57.57,0,0,1,28,45.8h-.15c-.1,0-.25,0-.36-.1a.93.93,0,0,0-.35-.1.19.19,0,0,0-.11-.05,7,7,0,0,1-1.12-.46,6.73,6.73,0,0,1-.76-.51c-.05,0-.16-.1-.21-.15a.93.93,0,0,0-.25-.21c-.05-.1-.16-.15-.21-.2l-.1-.05a6,6,0,0,1-1-.92,5,5,0,0,1-.76-1.22.75.75,0,0,1-.1-.31c0-.15-.11-.25-.16-.41s-.15-.4-.25-.66a.59.59,0,0,0-.15-.36,5.42,5.42,0,0,1-.21-1c-.05,0-.05-.15-.1-.2-.05-.25-.1-.56-.15-.82v-.25a1.54,1.54,0,0,1-.11-.46,2.94,2.94,0,0,0-.05-.66c0-.1-.05-.21-.05-.31v-.25a.92.92,0,0,1,0-.36v-.46c0-.51,0-1.07,0-1.58v-.51a.65.65,0,0,0,.05-.31,1.24,1.24,0,0,1,.05-.4v-.11a4.37,4.37,0,0,1,0-.81,1.22,1.22,0,0,1,.06-.46,4.53,4.53,0,0,1,.05-.87c.05-.15.05-.3.1-.46a.54.54,0,0,1,.05-.25v-.1c0-.11,0-.21,0-.31s0-.2,0-.31a0,0,0,0,0,.05-.05v-.4c.05-.21.05-.36.1-.57a.45.45,0,0,0,.05-.25.26.26,0,0,0,.06-.2,2.86,2.86,0,0,1,.1-.36c0-.1,0-.15,0-.26s.05-.15.1-.25.1-.41.1-.61a4.65,4.65,0,0,1,.31-.87l.15-.31.15-.46a8.79,8.79,0,0,1,.51-1.07c.26-.56.57-1.07.82-1.53a5.19,5.19,0,0,1,.92-1c.15-.11.25-.21.41-.31a2.42,2.42,0,0,1,1.22-.71c.25-.06.51-.16.77-.21a.3.3,0,0,1,.2,0,2.2,2.2,0,0,0,.56-.1h.15a1.18,1.18,0,0,1,.41-.05h.15c.21,0,.41-.05.62-.05h1a.17.17,0,0,1,.1.05h.35a.28.28,0,0,0,.21.05h.15a3.31,3.31,0,0,1,1.38.61,1,1,0,0,1,.3.2c.06.06.11.11.16.11l.15.15A5.27,5.27,0,0,1,34.59,22,5.08,5.08,0,0,1,35,23a1.85,1.85,0,0,1,.2.56,1.29,1.29,0,0,0,.11.46.38.38,0,0,1,0,.2l.15.46c.05.21.15.41.2.66v.11c0,.25.1.46.16.71a1.77,1.77,0,0,0,.15.66c0,.11,0,.21,0,.31s0,.1,0,.15a3.57,3.57,0,0,1,.1.72c.05.15.05.3.1.46a.17.17,0,0,0,.06.15v.15a3.66,3.66,0,0,1,.1.66c0,.16.05.31.05.46v.36a2.51,2.51,0,0,1,0,.61v1.74a1.38,1.38,0,0,1,.05.45ZM30.05,21.53v0h-.56a1.61,1.61,0,0,0-.61.31l-.05.05a.86.86,0,0,1-.31.3,1.82,1.82,0,0,0-.61.77c-.15.36-.36.71-.51,1.12a4.48,4.48,0,0,0-.2,1.12v.05a.19.19,0,0,1-.05.11c0,.15-.06.3-.06.51,0,.05-.05.1-.05.15s-.05.46-.05.66v.15a.92.92,0,0,0,0,.36v.31l-.05.15a4.52,4.52,0,0,1-.05.82c0,.15-.05.3-.05.4a1.41,1.41,0,0,1-.05.46v.56l0,.11v2.19a2.9,2.9,0,0,0,0,.66v1a5.65,5.65,0,0,0,0,.92v.41a1,1,0,0,0,0,.4,1.33,1.33,0,0,1,.05.41v.21a1.64,1.64,0,0,0,.05.51,2,2,0,0,0,.05.51,1.24,1.24,0,0,0,.05.4A1.13,1.13,0,0,0,27,38a2.28,2.28,0,0,0,.05.56.48.48,0,0,1,.11.36.7.7,0,0,0,.05.31c.2.51.35,1,.51,1.48v0a4.15,4.15,0,0,0,.4,1c.06.1.06.15.11.2a2.34,2.34,0,0,0,.25.46,1.8,1.8,0,0,0,.61.76c.05.05.05.05.11.05a.26.26,0,0,0,.2.16h.25a.65.65,0,0,0,.31,0,1.88,1.88,0,0,0,.51-.26,1.38,1.38,0,0,1,.26-.31c.05-.05.1-.15.15-.2a.46.46,0,0,0,.15-.25,13.6,13.6,0,0,0,.51-1.43l0,0c0-.16.05-.31.05-.41a5.22,5.22,0,0,1,.16-.87c.05-.2.1-.41.15-.66a2.27,2.27,0,0,1,.1-.51V38.1c.05-.05.05-.1.05-.2v-.15a.9.9,0,0,0,0-.36s0-.1,0-.2a.5.5,0,0,1,.06-.26v-.3a.65.65,0,0,1,0-.31v-.26a.63.63,0,0,1,.05-.3V35.1a.34.34,0,0,0,0-.21v-.25a6.7,6.7,0,0,1,0-1,1,1,0,0,0-.05-.36,4.48,4.48,0,0,1,0-.82.63.63,0,0,1,0-.3V32c0-.06-.06-.11-.06-.21a.85.85,0,0,0,0-.35c0-.11,0-.21,0-.31v-.26a.74.74,0,0,1-.05-.35v0c-.05-.16-.05-.36-.1-.51v-.16c0-.35-.1-.61-.1-.86a33.7,33.7,0,0,0-.77-6.07c-.05-.16,0-.31-.05-.51a.18.18,0,0,0-.05-.15.52.52,0,0,0-.1-.26,1.25,1.25,0,0,0-.46-.31A.56.56,0,0,0,30.05,21.53Z"/><path class="cls-2" d="M54.28,45.75v0c-.05.11-.05.16-.16.21v.05a.71.71,0,0,1-.3.1h-.16a.3.3,0,0,1-.2.05.45.45,0,0,1-.25-.05H53.1a3.12,3.12,0,0,1-1.22-.25,6,6,0,0,1-1.17-.46,5.73,5.73,0,0,1-1-.61h0a1.91,1.91,0,0,1-.56-.57,6.1,6.1,0,0,1-.77-1.07,1.82,1.82,0,0,0-.36-.51l-.3-.61c0-.1-.1-.15-.16-.25-.3-.56-.56-1.07-.81-1.48s-.36-.72-.51-1L46,39a.4.4,0,0,0-.11-.2.75.75,0,0,1-.1-.31c-.15-.2-.25-.46-.41-.66a3.6,3.6,0,0,0-.46-.92,1.69,1.69,0,0,1-.2-.46c-.05,0-.05-.15-.1-.2a.39.39,0,0,1-.1-.26,3.61,3.61,0,0,1-.31-.56c-.2-.35-.36-.76-.56-1.17a1.79,1.79,0,0,0-.26-.46c-.2-.46-.4-1-.61-1.48l-.3-.61c0-.15-.16-.31-.21-.46a.91.91,0,0,0-.2-.36l-.1-.1-.05,0h-.06V31a.56.56,0,0,0,.06.31v.92a1.78,1.78,0,0,0-.06.56V34a.74.74,0,0,0,.06.36v1c0,.1,0,.15.05.2v.31a.3.3,0,0,1,0,.2v2a5.67,5.67,0,0,0,.1,1s0,.16,0,.21a2.66,2.66,0,0,1,.1.56c.1.46.21.92.31,1.27s.3.82.46,1.18a4.77,4.77,0,0,0,.41.71l.05,0c.1.15.2.36.3.51s.26.31.36.46,0,.1,0,.15h.05c.15.16.31.36.46.51a.58.58,0,0,1,.15.46.44.44,0,0,1-.3.36.41.41,0,0,1-.21,0h-.66a2.67,2.67,0,0,1-1.12-.26.75.75,0,0,0-.31-.1A1.09,1.09,0,0,1,42,45h-.1c-.06,0-.11,0-.16,0h-.05a.15.15,0,0,0-.1,0,7.46,7.46,0,0,1-1,.61,1.17,1.17,0,0,1-.41.1.18.18,0,0,1-.15,0,.56.56,0,0,1-.31.06h-.35a4.66,4.66,0,0,1-1.18-.26.57.57,0,0,1-.25-.36c0-.15.05-.25.1-.35l.2-.21c.11,0,.16-.2.21-.35A9.15,9.15,0,0,0,39,42.8a.92.92,0,0,0,0-.36c.05-.1.05-.21.1-.31a5.18,5.18,0,0,0,0-1.53,5.56,5.56,0,0,1,0-.91v-.51a.56.56,0,0,1,0-.26,1.61,1.61,0,0,1,0-.51v-.15c0-.26,0-.51,0-.72a3.86,3.86,0,0,0,0-.76v-.05a1.8,1.8,0,0,0,.05-.51v-.31a2.94,2.94,0,0,0-.05-.66s0,0,0-.1V32.7c0-.15,0-.26,0-.36V32c0-.11,0-.16,0-.21a.74.74,0,0,0,0-.56v-.1c0-.1,0-.26,0-.41a1.42,1.42,0,0,1,0-.46.18.18,0,0,0,0-.15v-.26c0-.1,0-.15-.05-.2V28.52a7,7,0,0,1,0-1V26.12a1.61,1.61,0,0,0-.05-.51V25.3a1.38,1.38,0,0,0,0-.45.65.65,0,0,0,0-.31,2.51,2.51,0,0,0-.05-.61v-.1a.52.52,0,0,1-.06-.26c0-.15-.05-.31-.05-.46a3.19,3.19,0,0,0-.2-.81,1.71,1.71,0,0,1-.1-.41,5.27,5.27,0,0,0-.16-.51,1.42,1.42,0,0,0-.4-.66c-.21-.21-.26-.41,0-.62A.69.69,0,0,1,38,20a3,3,0,0,1,.66-.1h.82c.15,0,.3,0,.51,0,0,.05,0,.05.1.05a1.15,1.15,0,0,1,.41.05c.3.15.61.31,1,.46l.1.1c.15.1.3.16.46.26a.18.18,0,0,0,.15.05.38.38,0,0,0,.2-.1,4,4,0,0,1,1.48-.92c.05,0,.11-.05.16-.05a1.89,1.89,0,0,1,.51-.16,0,0,0,0,1,.05-.05,1.13,1.13,0,0,1,.41-.05h.71a.41.41,0,0,1,.41.21.47.47,0,0,1-.1.56c-.06,0-.06.05-.11.05l0,.05a2.94,2.94,0,0,0-.66,1.07.18.18,0,0,1-.05.15v.16a1.73,1.73,0,0,0,0,.51v.4c-.05.05,0,.11,0,.16V23a2.59,2.59,0,0,0,.1.61v.21a6.17,6.17,0,0,0,.25.91c.06.16.11.36.16.51A6.57,6.57,0,0,0,46,26.38l0,.15s0,.15,0,.2a2.18,2.18,0,0,0,.15.36,8.26,8.26,0,0,1,.51,1.17l0,.1c.05.16.15.31.21.46a1,1,0,0,0,.15.26l.1.25a8.12,8.12,0,0,0,.36.87c.15.41.35.82.51,1.17l.46.92a7.32,7.32,0,0,0,.4.92,5.75,5.75,0,0,1,.41.92,4.4,4.4,0,0,0,.36.61.67.67,0,0,0,0-.31v-.71a4.26,4.26,0,0,0-.15-1.12v-.05c0-.11,0-.16,0-.26V32a1.75,1.75,0,0,0-.06-.56,1.81,1.81,0,0,1,0-.52,1.38,1.38,0,0,1-.05-.45V30.1a.5.5,0,0,0,0-.26c0-.1,0-.2,0-.2v-.2a.65.65,0,0,0,0-.31V28.06a2,2,0,0,0,0-.51v-.46a1.3,1.3,0,0,1-.05-.41,2,2,0,0,0,.05-.51V26a1.57,1.57,0,0,0-.05-.51V25a.33.33,0,0,1,0-.21v-.1a3.56,3.56,0,0,0-.15-.92.18.18,0,0,0-.05-.15,3,3,0,0,0-.21-.66,3.19,3.19,0,0,0-.51-.92,3.58,3.58,0,0,0-1.12-.87.64.64,0,0,1-.26-.35.56.56,0,0,1,.16-.36A1.83,1.83,0,0,1,47.8,20a5.5,5.5,0,0,1,1-.3h0a1.22,1.22,0,0,1,.46-.06.59.59,0,0,1,.31.06h.2c.36.05.82.15,1.22.25.05.05.1.05.21.05a1,1,0,0,0,.35-.05,3.81,3.81,0,0,1,.36-.2,1.48,1.48,0,0,0,.26-.16l.81-.3c.15,0,.31-.05.51-.05a.67.67,0,0,1,.31.05.38.38,0,0,1,.2.1.43.43,0,0,1,.15.31.45.45,0,0,1-.15.35H54a1.1,1.1,0,0,0-.25.21,6.45,6.45,0,0,0-.41.56c-.1.35-.26.66-.36,1a.18.18,0,0,1-.05.15c0,.25-.1.51-.15.71a.76.76,0,0,1,0,.36.26.26,0,0,1-.06.2V24a3.41,3.41,0,0,1-.1.76v1.89a11,11,0,0,0,0,1.28V28a3.36,3.36,0,0,0,0,.71,2.32,2.32,0,0,1-.05.56v1.43c0,.2.05.41.05.56a1.41,1.41,0,0,1,0,.46v.1a2,2,0,0,0-.05.51v.21a1.07,1.07,0,0,1,0,.4,2.1,2.1,0,0,0,0,.56v.06a1.24,1.24,0,0,0,0,.4v.26a.45.45,0,0,1,0,.25v.41a7.74,7.74,0,0,1,0,1.07v1.12a1,1,0,0,0,0,.41V38c0,.1,0,.21.05.26v.66l0,.2a2.09,2.09,0,0,0,.05.56v.31c0,.1,0,.2,0,.26v.3a.76.76,0,0,0,.06.36,1.33,1.33,0,0,0,0,.46.63.63,0,0,0,0,.3,4.44,4.44,0,0,0,.2.87c0,.2.1.36.15.51l.16.51c.15.36.25.71.41,1.07a1.24,1.24,0,0,0,.2.31l0,0V45a1,1,0,0,1,.31.51A.16.16,0,0,1,54.28,45.75Z"/><path class="cls-2" d="M70.75,33.31v.46a.3.3,0,0,0,0,.2,1.13,1.13,0,0,1,0,.41v0c0,.16-.05.31-.05.41V35a1.41,1.41,0,0,1,0,.46v0a1.73,1.73,0,0,1,0,.51v.46a1.79,1.79,0,0,1-.11.56,3.13,3.13,0,0,1-.1.72.18.18,0,0,1-.05.15.7.7,0,0,1,0,.31,1.59,1.59,0,0,1-.1.46,3.61,3.61,0,0,1-.31.86c0,.1,0,.16,0,.21a6.47,6.47,0,0,1-.25.66,3.92,3.92,0,0,0-.16.36,2.44,2.44,0,0,0-.15.35.41.41,0,0,0-.1.21,5.24,5.24,0,0,0-.36.86c-.1.16-.2.31-.31.46l-.05.1a1.22,1.22,0,0,0-.25.41c-.15.21-.31.41-.46.61s-.2.31-.31.46a3.51,3.51,0,0,1-1,.77l0,0a6.75,6.75,0,0,1-1.07.56c-.1,0-.15,0-.25,0l-.31.15h-.1a10.29,10.29,0,0,1-1.48.06h-.66a.57.57,0,0,1-.31-.06H62c-.1,0-.26,0-.36-.1a.93.93,0,0,0-.35-.1.19.19,0,0,0-.11-.05A7,7,0,0,1,60,45.09a6.73,6.73,0,0,1-.76-.51c-.05,0-.16-.1-.21-.15a.93.93,0,0,0-.25-.21c0-.1-.16-.15-.21-.2l-.1-.05a5.59,5.59,0,0,1-1-.92,5,5,0,0,1-.76-1.22.75.75,0,0,1-.1-.31c-.06-.15-.11-.25-.16-.41s-.15-.4-.25-.66a.55.55,0,0,0-.16-.36,6.42,6.42,0,0,1-.2-1s0-.15-.1-.2c-.05-.25-.1-.56-.15-.82v-.25a1.29,1.29,0,0,1-.11-.46,2.94,2.94,0,0,0,0-.66c0-.1,0-.21,0-.31v-.25a.92.92,0,0,1-.05-.36v-.46c.05-.51.05-1.07.05-1.58v-.51a.65.65,0,0,0,0-.31,1.24,1.24,0,0,1,0-.4v-.11a4.37,4.37,0,0,1,0-.81,1.44,1.44,0,0,1,.05-.46,3.79,3.79,0,0,1,.06-.87c.05-.15.05-.3.1-.46a.54.54,0,0,1,.05-.25v-.1c0-.11,0-.21,0-.31s0-.2,0-.31a0,0,0,0,0,0-.05v-.4c.05-.21.05-.36.1-.57a.45.45,0,0,0,.05-.25.3.3,0,0,0,0-.2c.06-.16.06-.26.11-.36s.05-.15.05-.26,0-.15.1-.25.1-.41.1-.61a4,4,0,0,1,.31-.87l.15-.31.15-.46a8.79,8.79,0,0,1,.51-1.07c.26-.56.56-1.07.82-1.53a5.19,5.19,0,0,1,.92-1c.15-.11.25-.21.41-.31A2.42,2.42,0,0,1,61,19.7c.25-.06.51-.16.76-.21a.34.34,0,0,1,.21,0,2.28,2.28,0,0,0,.56-.1h.15a1.15,1.15,0,0,1,.41-.05h.15c.21,0,.41-.05.61-.05h1a.18.18,0,0,1,.11.05h.35c0,.05.11.05.21.05h.15A3.31,3.31,0,0,1,67,20a1,1,0,0,1,.3.2.26.26,0,0,0,.16.11l.15.15A5.47,5.47,0,0,1,68.71,22a5.08,5.08,0,0,1,.41,1,1.85,1.85,0,0,1,.2.56,1.52,1.52,0,0,0,.1.46.33.33,0,0,1,.06.2l.15.46c.05.21.15.41.2.66v.11c0,.25.1.46.16.71a1.77,1.77,0,0,0,.15.66c0,.11,0,.21,0,.31s0,.1,0,.15a3.57,3.57,0,0,1,.1.72c0,.15,0,.3.1.46a.17.17,0,0,0,.06.15v.15a3.66,3.66,0,0,1,.1.66c0,.16.05.31.05.46v.36a2.51,2.51,0,0,1,0,.61v1.74a1.38,1.38,0,0,1,0,.45ZM64.17,21.53v0h-.56a1.61,1.61,0,0,0-.61.31l0,.05a.86.86,0,0,1-.31.3A1.82,1.82,0,0,0,62,23c-.15.36-.36.71-.51,1.12a4.48,4.48,0,0,0-.2,1.12v.05a.19.19,0,0,1,0,.11c0,.15-.06.3-.06.51,0,.05-.05.1-.05.15s0,.46,0,.66v.15a.92.92,0,0,0,0,.36v.31l-.05.15a4.52,4.52,0,0,1,0,.82c0,.15-.05.3-.05.4a1.41,1.41,0,0,1,0,.46v.56l0,.11v2.19a2.42,2.42,0,0,0,0,.66v1a4.71,4.71,0,0,0,0,.92v.41a1,1,0,0,0,0,.4,1.33,1.33,0,0,1,0,.41v.21a1.64,1.64,0,0,0,.05.51,2,2,0,0,0,0,.51,1.24,1.24,0,0,0,.05.4,1.13,1.13,0,0,0,0,.41,2.28,2.28,0,0,0,0,.56.48.48,0,0,1,.11.36.7.7,0,0,0,0,.31c.2.51.35,1,.51,1.48v0a4.15,4.15,0,0,0,.4,1c.05.1.05.15.11.2a2.34,2.34,0,0,0,.25.46,1.8,1.8,0,0,0,.61.76c0,.05,0,.05.1.05a.29.29,0,0,0,.21.16h.25a.65.65,0,0,0,.31,0,1.88,1.88,0,0,0,.51-.26,1.62,1.62,0,0,1,.25-.31c.06-.05.11-.15.16-.2a.46.46,0,0,0,.15-.25c.2-.46.36-1,.51-1.43l0,0c0-.16,0-.31,0-.41a5.22,5.22,0,0,1,.16-.87c0-.2.1-.41.15-.66a2.27,2.27,0,0,1,.1-.51V38.1c0-.05,0-.1,0-.2v-.15a.9.9,0,0,0,.05-.36s0-.1,0-.2a.58.58,0,0,1,0-.26v-.3a.56.56,0,0,1,.06-.31v-.26a.63.63,0,0,1,0-.3V35.1a.34.34,0,0,0,0-.21v-.25a6.7,6.7,0,0,1,0-1,1,1,0,0,0,0-.36,3.74,3.74,0,0,1,0-.82.54.54,0,0,1-.06-.3V32c0-.06,0-.11,0-.21a.85.85,0,0,0,0-.35c0-.11-.05-.21-.05-.31v-.26a.74.74,0,0,1,0-.35v0c0-.16,0-.36-.1-.51v-.16c0-.35-.1-.61-.1-.86a33.7,33.7,0,0,0-.77-6.07c0-.16,0-.31,0-.51a.18.18,0,0,0,0-.15A.52.52,0,0,0,65,22a1.33,1.33,0,0,0-.46-.31A.56.56,0,0,0,64.17,21.53Z"/><path class="cls-2" d="M89.87,32.44a9.8,9.8,0,0,1-.3,2.71v.71a2.18,2.18,0,0,0-.1.77v.66l-.11.56a.63.63,0,0,0-.1.41c0,.35-.1.56-.1.86a8.42,8.42,0,0,1-.46,1.43,16.53,16.53,0,0,1-.76,1.89c-.21.41-.31.76-.51,1.17a3.94,3.94,0,0,0-.36.66l-.76,1.18-.41.46a10.22,10.22,0,0,1-1,.86,4.64,4.64,0,0,1-1.28.56,3.16,3.16,0,0,1-.66.31,14.56,14.56,0,0,1-2.09,0H80c-.3-.1-.61-.2-.87-.31a6.66,6.66,0,0,1-1.27-.56,1.9,1.9,0,0,1-.76-.56l-.57-.41-.3-.25c-.36-.31-.77-.61-1.12-1a6.14,6.14,0,0,1-.77-1.38c-.1-.25-.2-.46-.3-.76a6.31,6.31,0,0,1-.46-1.23,4.3,4.3,0,0,1-.31-1.27,4.4,4.4,0,0,1-.2-1.12,1.32,1.32,0,0,1-.11-.66c0-.21,0-.41,0-.67a.61.61,0,0,1-.1-.41,2.51,2.51,0,0,1,0-1.22V33.72c.1-.36,0-.56.1-.87,0-.1,0-.15,0-.25,0-.51,0-.87,0-1.38a2.5,2.5,0,0,1,.11-.87l.1-.76c0-.15.1-.36.1-.46v-.56a.35.35,0,0,0,.1-.21,1.75,1.75,0,0,1,.1-.76c0-.2.11-.41.11-.56l.15-.72.2-.91a2.56,2.56,0,0,1,.41-1l.26-.87.61-1.27.92-1.69c.1-.1.2-.3.4-.4a3.4,3.4,0,0,1,.87-.87h.1a1.59,1.59,0,0,1,.67-.56l.66-.31,1-.25H80a2,2,0,0,0,.77-.21h.46c.51,0,1-.1,1.53-.1a2.68,2.68,0,0,1,.86.1,3.65,3.65,0,0,1,1.28.26l.76.41c.1.1.15.2.26.3l.41.26a9,9,0,0,1,1,1.37,6.39,6.39,0,0,1,.36,1.23l.21.66v1a.94.94,0,0,1-.11.56l-.2.87-.26.4-.4.46a1.83,1.83,0,0,1-.67.31,5.58,5.58,0,0,1-.86.25,3.5,3.5,0,0,1-.77-.05c-.3-.1-.46-.1-.76-.2a3.53,3.53,0,0,1-1-.41l-.67-.56v-.31c0-.1,0-.15.21-.25s.2,0,.25.1a.37.37,0,0,0,.41-.1,1.37,1.37,0,0,0,.87-1.28,2.39,2.39,0,0,0,.1-.86,4.81,4.81,0,0,0-.31-1.33l-.2-.3a2.17,2.17,0,0,0-.87-.56h-.76a.3.3,0,0,0-.26.1c-.2,0-.3.1-.51.2l-.66.56-.46.56c-.2.51-.41,1-.61,1.43a2.72,2.72,0,0,0-.15.61l-.21.87v.56l-.1.46a2.12,2.12,0,0,1-.1.76,3.78,3.78,0,0,1-.1,1.08v.76a1.41,1.41,0,0,0-.1.66v.87a2.28,2.28,0,0,0-.06.66c-.1,1.48-.1,3-.1,4.44v.1c.1.36,0,.77.1,1.12a2.92,2.92,0,0,0,.06.72v.66c0,.36.1.66.1,1l.2,1a1.12,1.12,0,0,0,.1.51v.36l.21.56c.15.4.25.71.35,1.07s.31,1,.51,1.43a11.15,11.15,0,0,1,.67,1.07,2.75,2.75,0,0,0,.76.76c.1,0,.21.1.36.1a1.75,1.75,0,0,0,.71-.1,1.77,1.77,0,0,0,.56-.46l.46-.51a2.28,2.28,0,0,0,.41-1c.1-.35.26-.76.36-1.22l.1-.56c.1-.41.2-.87.31-1.28V40c0-.25.1-.56.1-.76a.2.2,0,0,1,.1-.16c0-.2,0-.4,0-.61v-.46l.1-.86v-.11c0-.2.1-.56.1-.86a2.87,2.87,0,0,0,0-1v-.51a1.33,1.33,0,0,0-.61-.61h-.1a3.59,3.59,0,0,0-2.29.35l-.46.31c-.11.1-.26.2-.41.31a.34.34,0,0,1-.51-.31,4.17,4.17,0,0,1,.66-2,2.89,2.89,0,0,1,.36-.46,4.56,4.56,0,0,1,.25-.41c.77-.76.72-.92,4.39-1.12a13.74,13.74,0,0,0,1.43-.1,4.57,4.57,0,0,1,1.17-.05C89.93,30.81,89.93,31.78,89.87,32.44Z"/><path class="cls-2" d="M108.18,45.24a.46.46,0,0,1-.15.36,1,1,0,0,1-.41.15.45.45,0,0,1-.25,0,.29.29,0,0,1-.21.06.3.3,0,0,1-.2,0h-.56A4.57,4.57,0,0,1,105,45.6a3.67,3.67,0,0,1-1.12-.66c-.31-.26-.61-.56-.87-.82a3.63,3.63,0,0,1-.61-.87,15.12,15.12,0,0,1-.92-2.34c-.15-.46-.25-.92-.36-1.38l0-.1a9.63,9.63,0,0,0-.35-1.12,3.32,3.32,0,0,0-.46-.61s-.1-.05-.15-.05a.17.17,0,0,0-.11.05,1.21,1.21,0,0,0-.71.51,4.85,4.85,0,0,0-.71,1.63,1.16,1.16,0,0,0-.06.61.18.18,0,0,1,0,.15v.21a.18.18,0,0,1,0,.15,1.22,1.22,0,0,0,.06.46v.2c0,.26.1.51.15.72a2.55,2.55,0,0,1,.1.56,2.55,2.55,0,0,0,.2.66,2.83,2.83,0,0,1,.11.31c0,.05,0,.15.15.2s.1.1.1.15l.15.16a1.24,1.24,0,0,0,.31.2c.1,0,.2.1.31.2a.48.48,0,0,1,.1.51.42.42,0,0,1-.31.31c-.15,0-.25,0-.36.1h-.2a1.41,1.41,0,0,1-.46,0H97.42c-.15,0-.3,0-.51,0a.45.45,0,0,1-.25-.05l-.92-.3c-.1,0-.15-.06-.25-.06a.94.94,0,0,0-.36.11l-.36.2c-.15,0-.25.15-.41.2a6.17,6.17,0,0,1-1.12.41h0a.76.76,0,0,1-.36,0h-.15c-.05,0-.1.05-.15.05a3.57,3.57,0,0,1-.72-.1.5.5,0,0,1-.35-.51c0-.1.05-.15.05-.2l.2-.21s.05-.1.1-.15a1.88,1.88,0,0,0,.36-.81,2,2,0,0,1,.21-.62.94.94,0,0,1,.1-.4c0-.16,0-.31.1-.46a2,2,0,0,1,0-.26,1.27,1.27,0,0,0,.05-.41c0-.15,0-.3.1-.45v-.16a2.91,2.91,0,0,1,0-.66,2.9,2.9,0,0,0,0-.66,1.31,1.31,0,0,0,0-.62v-.56a5,5,0,0,0,0-1.22,12.73,12.73,0,0,1,0-1.38v-.76c0-.16,0-.26,0-.36v-.41a2.94,2.94,0,0,0,0-.66V33.11a1.48,1.48,0,0,1,0-.46.9.9,0,0,0,0-.36v-.56a1.18,1.18,0,0,0-.05-.41v-.56a1.13,1.13,0,0,1,0-.41v-.2a1.3,1.3,0,0,1,0-.41v-1a1.8,1.8,0,0,0,0-.51V27.7a1.48,1.48,0,0,0,0-.46V24a7.67,7.67,0,0,0-.16-1.07c0-.1,0-.21-.1-.31a4.79,4.79,0,0,0-.2-.81,1,1,0,0,0-.11-.36,5.67,5.67,0,0,0-.56-.92c-.1-.1-.1-.25-.15-.36a.39.39,0,0,1,.31-.45l.05-.06a2.17,2.17,0,0,1,.51-.1h0a.76.76,0,0,1,.36-.05h.1a.63.63,0,0,0,.3.05,1.46,1.46,0,0,1,.46.1,7.58,7.58,0,0,1,1.18.41,2.83,2.83,0,0,1,.61.41c.1.1.25.1.41.15a.17.17,0,0,0,.1.05h.1a1.51,1.51,0,0,0,.66-.25,5.76,5.76,0,0,1,1.43-.61c.1,0,.2-.05.31-.05s.25-.05.35-.11.26-.05.36-.05h0a.18.18,0,0,0,.15-.05h.51c0-.05,0-.05.11-.05h.46a1.73,1.73,0,0,1,.51,0h.25a3.28,3.28,0,0,1,.82.2l.15.06.61.15a3.45,3.45,0,0,1,.36.1.69.69,0,0,1,.2.15,3.16,3.16,0,0,1,.87.46,1.37,1.37,0,0,1,.36.36c.15.15.25.31.35.36s.16.1.16.15l.2.2a9.86,9.86,0,0,0,.71.92c.11.15.21.31.31.46a7.31,7.31,0,0,1,.71,1.53,3.8,3.8,0,0,1,.26.76v.16c0,.1,0,.2.1.3a.47.47,0,0,0,0,.26v.46a1.41,1.41,0,0,1,0,.46v.86c0,.31,0,.62,0,.92s0,.41-.1.61v.16c0,.15,0,.3-.1.46s-.15.56-.26.91h0c-.1.26-.2.56-.3.82s-.26.51-.41.71a1,1,0,0,1-.15.26c-.16.3-.36.56-.51.86a7,7,0,0,1-.51.62,2.36,2.36,0,0,0-.36.4A3.33,3.33,0,0,1,104,35a.81.81,0,0,0,0,.36l0,0a4.35,4.35,0,0,1,.66,1.07,3.54,3.54,0,0,1,.31.92c.1.41.2.77.31,1.17,0,.11,0,.21.1.31v.05a15.15,15.15,0,0,1,.41,1.48c.15.61.35,1.22.56,1.83v.06a4.79,4.79,0,0,0,.3.76c0,.05.05.1.05.15s.11.26.21.36.1.15.15.26a1.09,1.09,0,0,1,.15.25,1.61,1.61,0,0,1,.31.36s.1.15.2.25.11,0,.16.1h0l.15.16A.36.36,0,0,1,108.18,45.24ZM98.8,34.94a6.54,6.54,0,0,0,.87-.61,3.85,3.85,0,0,0,.61-.71c.1-.16.25-.36.36-.56a1.62,1.62,0,0,0,.25-.31,5.49,5.49,0,0,0,.72-1.43c0-.05,0-.2.1-.3s.05-.21.05-.31a.18.18,0,0,0,0-.15s0-.16,0-.26l.15-.61a3.43,3.43,0,0,0,.16-.61,3.12,3.12,0,0,1,0-.66v-.26a8.4,8.4,0,0,0,0-1.12.43.43,0,0,0-.06-.26v-.4c0-.06,0-.11,0-.16a1.27,1.27,0,0,1,0-.41.38.38,0,0,1-.05-.2,7.86,7.86,0,0,0-.3-1,.34.34,0,0,0-.11-.2.71.71,0,0,0-.1-.31,4.67,4.67,0,0,0-.25-.51c0-.05,0-.1-.11-.15a.35.35,0,0,0-.2-.26,1.33,1.33,0,0,1-.36-.35c0-.06-.15-.11-.2-.21a1.24,1.24,0,0,0-.36-.1h-.15a.17.17,0,0,1-.1.05.59.59,0,0,0-.41.26,2.17,2.17,0,0,1-.2.35,2.85,2.85,0,0,0-.36.72c0,.1,0,.15-.1.2-.05.2-.16.41-.21.56a7.35,7.35,0,0,0-.2,1,.58.58,0,0,0,0,.26c0,.3,0,.56-.1.76V27c0,.15,0,.36,0,.56v.92a1.48,1.48,0,0,0,0,.46v3.11a10,10,0,0,0,0,1.17v1.43a.47.47,0,0,0,.25.41h.2Z"/><path class="cls-11" d="M132.15,37.82a.67.67,0,0,1-.41.46,5.47,5.47,0,0,1-1.92.48,3.37,3.37,0,0,1-1.61-.33c-.1,0-.19-.3-.29-.3a.81.81,0,0,0-.46.15,3.93,3.93,0,0,1-2.3.66h0a1,1,0,0,1-.38,0,.63.63,0,0,1-.33-.3.73.73,0,0,1,.15-.56,4.2,4.2,0,0,0,.56-1.23,7.61,7.61,0,0,0,0-2.65v-.1a8.47,8.47,0,0,0-.1-1.12c-.1-.72-.36-1-1-1H124c-.25,0-.51.05-.87.05h-.51a1.73,1.73,0,0,0-.51-.05H122a1.18,1.18,0,0,0-.41.05c-.51,0-.71.26-.71.77a13.74,13.74,0,0,1-.1,1.42c0,.46,0,1,0,1.43s0,1.22.1,1.84c0,.2,0,.4,0,.56a.38.38,0,0,1-.1.41.37.37,0,0,1-.31.15h-.17a3.27,3.27,0,0,1-1.82-.92.17.17,0,0,0-.05-.1.84.84,0,0,1-.25.1,6.25,6.25,0,0,1-.77.46,2.45,2.45,0,0,1-.92.2h0a.46.46,0,0,1-.35-.15.54.54,0,0,1-.06-.51,4.42,4.42,0,0,0,.21-.56c.15-.46.3-.92.41-1.38.2-.76.35-1.53.51-2.29,0-.26.1-.46.15-.72l.61-2.8c.15-.82.36-1.63.51-2.4.05-.35.15-.71.2-1.07.31-1.38.62-2.75.92-4.13a5.5,5.5,0,0,1,.26-1c.1-.51.25-1,.3-1.48a27.09,27.09,0,0,0,.31-3,3.17,3.17,0,0,0-1-2.45.69.69,0,0,0-.2-.15.05.05,0,0,1,0-.06.37.37,0,0,1-.21-.35.37.37,0,0,1,.15-.31,3.24,3.24,0,0,1,1.84-.71c.15,0,.36.05.51.05a2.27,2.27,0,0,0,.51.1,3.93,3.93,0,0,1,.76.15,10.47,10.47,0,0,1,1.08.46c.25.16.46.31.66.46a.91.91,0,0,1,.3.21,1,1,0,0,0,.26.1c.1,0,.15,0,.31-.16.4-.35.41-.81,1-.91a9.13,9.13,0,0,1,1.17,0A2,2,0,0,1,129,14a.51.51,0,0,1,.25.41c0,.2-.1.3-.25.45a2.15,2.15,0,0,0-.61,1.38,17.19,17.19,0,0,0,0,4.9c.05.61.1,1.22.15,1.78s.1,1.23.2,1.84.16,1,.26,1.48a13.31,13.31,0,0,0,.2,1.37c.05.46.11,1,.16,1.48s.1,1.23.2,1.89a28,28,0,0,0,.82,3.72,3.1,3.1,0,0,1,.2.61c.15.31.26.72.41,1a2.31,2.31,0,0,0,.81,1.07A.61.61,0,0,1,132.15,37.82Zm-8.26-8.46a.65.65,0,0,0,.36-.21.31.31,0,0,0,.1-.35,9,9,0,0,0-.16-1.38v-.2c-.15-1-.3-2.1-.45-3.17-.16-.81-.31-1.63-.46-2.44a3.41,3.41,0,0,1-.11-.72,2.44,2.44,0,0,0-.15-.35c0,.15-.15.25-.15.35a4.32,4.32,0,0,1-.16.56c-.1.62-.25,1.23-.3,1.84a20.05,20.05,0,0,1-.41,2.5c-.1.51-.2,1-.25,1.48,0,.1,0,.2,0,.3-.06.46-.16.87-.21,1.33,0,.15,0,.25.05.3a.73.73,0,0,0,.31.16h.71s.15.05.21.05,0-.05.1-.05h1Z"/><path class="cls-2" d="M166.56,24.29a1,1,0,0,0,.1-.36,2.93,2.93,0,0,0-.51-1.68.47.47,0,0,0-.25-.21,1.63,1.63,0,0,0-.67-.15H165a2.3,2.3,0,0,0-.66.56A6.26,6.26,0,0,0,164,23a4.9,4.9,0,0,0-.2.82c-.06.35-.11.71-.16,1.12a.45.45,0,0,0-.05.25v.21a14.15,14.15,0,0,0,0,1.48v1.22c0,.05-.05.15-.05.2a1.46,1.46,0,0,0,.1.67c0,.15.05.25.05.35s0,.21.1.31a2.22,2.22,0,0,0,.26.56,1.19,1.19,0,0,0,.15.26,1.56,1.56,0,0,0,.41.56.76.76,0,0,0,.66.3h.16c.05,0,.15.05.2.05a1.11,1.11,0,0,0,.61-.2,1.29,1.29,0,0,0,.41-.36l.2-.2v-.05a2.7,2.7,0,0,0,.16-.92v-.15A1.73,1.73,0,0,1,167,29a.65.65,0,0,1,.2-.51c.15-.21.41-.21.56-.26h.56a.73.73,0,0,1,.36.1c0,.06,0,.06.05.06a.45.45,0,0,1,.26.4c0,.11.05.21.05.31v1.17a8,8,0,0,1-.05,1.07v1.84a5.08,5.08,0,0,1,0,.87v1.12a1.27,1.27,0,0,1,0,.41c0,.1,0,.15,0,.2v.66a1.09,1.09,0,0,1-.41.77.85.85,0,0,1-.67.3h-.25c-.26,0-.41-.15-.56-.45a1.05,1.05,0,0,1,0-.41v-.72s0-.1,0-.15-.05-.15-.05-.2V35.2a.5.5,0,0,0-.05-.26c0-.1-.06-.25-.06-.35a4.83,4.83,0,0,0-.2-.67l0-.05a1,1,0,0,0-.36-.3.55.55,0,0,0-.41-.1,4.68,4.68,0,0,0-.76.1H165v0c-.05,0-.1.05-.21.1s-.15.15-.2.26-.1.15-.15.2a.81.81,0,0,0-.21.2.28.28,0,0,1-.1.16,5.15,5.15,0,0,0-.35.76c0,.05-.06.05-.06.1a.9.9,0,0,0-.15.51.2.2,0,0,0,0,.16,2.13,2.13,0,0,0-.1.56,1.94,1.94,0,0,1,0,.76,14.61,14.61,0,0,0,0,1.48,9.42,9.42,0,0,1,0,1.68v.36a3.37,3.37,0,0,0,0,.71V42a1.44,1.44,0,0,0,.05.46,5.68,5.68,0,0,0,.2,1.07,1.94,1.94,0,0,0,.36.51.67.67,0,0,0,.51.21h.15c.21,0,.41,0,.51-.16h.1a4.11,4.11,0,0,0,.72-.86.79.79,0,0,1,.1-.26.18.18,0,0,1,0-.15,2.69,2.69,0,0,0,.05-.92,1.23,1.23,0,0,0-.2-.61,2.36,2.36,0,0,0-.56-.67.41.41,0,0,1-.05-.61,1.46,1.46,0,0,1,.51-.35H166a3.45,3.45,0,0,1,.51-.16h.1s0,0,.1,0h.77a.93.93,0,0,1,.35.1,2.32,2.32,0,0,1,1,.51,10.12,10.12,0,0,1,.82,1,2.07,2.07,0,0,1,.3.77,1.89,1.89,0,0,1,.16.76.22.22,0,0,0,0,.11v.35a3,3,0,0,1-.46,1.58s0,0,0,.11v0a3.25,3.25,0,0,1-.56.61c-.05.05-.1.05-.16.1s-.2.15-.25.2a4,4,0,0,1-1.07.51,7.39,7.39,0,0,1-.72.26h-.3a1.77,1.77,0,0,0-.51.05c-.21,0-.36,0-.61,0a1.91,1.91,0,0,1-.51,0,4.59,4.59,0,0,1-.82-.1c-.05,0-.1-.05-.15-.05a5.22,5.22,0,0,1-.82-.21,4.07,4.07,0,0,1-1.17-.71l-.1-.05c-.26-.21-.46-.41-.72-.66-.05-.06-.1-.06-.15-.11s-.05-.1-.1-.1-.1-.1-.15-.1h-.11a1.26,1.26,0,0,0-.76.25,2.38,2.38,0,0,1-.56.31,2.43,2.43,0,0,0-.26,0,4.2,4.2,0,0,1-.66.21,2.22,2.22,0,0,1-.61.1c-.1,0-.26-.05-.36-.05a.15.15,0,0,0-.1,0h-.05a.49.49,0,0,1-.31-.41.4.4,0,0,1,.26-.41.39.39,0,0,0,.2-.2s0,0,0-.06a3.55,3.55,0,0,0,.51-1.12,3,3,0,0,0,.1-.66s0-.1,0-.15v-.05a2.29,2.29,0,0,0,.11-.67v-.25c.05-.67.05-1.33.05-2V34a14.15,14.15,0,0,1,0-1.48V32a4,4,0,0,1,.05-.77,7.6,7.6,0,0,0,0-1.07,1.41,1.41,0,0,1,0-.46,8.32,8.32,0,0,0,0-1.12,5,5,0,0,1,0-1.22,4.59,4.59,0,0,0-.1-.82c0-.25,0-.46,0-.71v-.31c0-.1-.05-.15-.05-.25v-.46a.58.58,0,0,1-.05-.26.33.33,0,0,1-.06-.2v-.15a.05.05,0,0,0,0-.06,3.76,3.76,0,0,0-.2-1.07.71.71,0,0,0-.1-.3.75.75,0,0,0-.1-.31c-.06-.15-.11-.36-.16-.51a6.3,6.3,0,0,0-.51-1.32c-.05-.06-.05-.11-.1-.16s0-.05,0-.1h-.05a.39.39,0,0,1-.1-.36.37.37,0,0,1,.3-.35c.1-.05.21-.05.31-.11h.36a1.49,1.49,0,0,1,.51-.1h.05c.15.05.3.05.46.1h0a4.16,4.16,0,0,1,.86.21l0,.05a1.67,1.67,0,0,1,.77.46,1.09,1.09,0,0,0,.25.15,3.93,3.93,0,0,0,1,.15H162a2.18,2.18,0,0,0,.61-.15c.15-.05.31-.05.46-.1a2,2,0,0,1,.26-.05.18.18,0,0,0,.15,0l.76-.16c.16-.05.36-.05.51-.1s.21-.05.31-.05a.92.92,0,0,0,.36-.05c.05,0,.05,0,.1,0h1.12a2.72,2.72,0,0,1,1.12.31c.31.15.61.3.87.45.1.11.2.16.25.26a5.15,5.15,0,0,1,.67,1A3.72,3.72,0,0,1,170,23c.05.1.05.2.1.31v.05a.3.3,0,0,0,0,.2v.31a.15.15,0,0,0,.05.1v.2a3.57,3.57,0,0,1-.1.72c-.05,0-.05,0-.05.1a2.72,2.72,0,0,1-.11.25,1.65,1.65,0,0,1-.4.62l-.11.1s0,.1-.1.15l-.41.26h-.05a2.5,2.5,0,0,1-.66.3,2.65,2.65,0,0,1-.76.16,1.71,1.71,0,0,1-.26-.06,2.5,2.5,0,0,1-1.63-.81.78.78,0,0,1-.26-.61.49.49,0,0,1,.41-.36,0,0,0,0,1,.05.05h0c.05,0,.11-.05.16-.05l.05-.05c.2-.1.3-.31.46-.51Z"/><path d="M130.77,37.82a.66.66,0,0,1-.37.46,3.42,3.42,0,0,1-3.15-.05.59.59,0,0,0-.28-.1.72.72,0,0,0-.41.15,3.24,3.24,0,0,1-2.06.66h0a.39.39,0,0,1-.23,0,.71.71,0,0,1-.41-.25.76.76,0,0,1,.13-.56,4.59,4.59,0,0,0,.51-1.23,8.72,8.72,0,0,0,0-2.65v-.1a8.45,8.45,0,0,0-.09-1.12c-.09-.72-.32-1-.87-1h-.09c-.23,0-.46.05-.78.05h-.45a1.44,1.44,0,0,0-.46-.05h-.14a.87.87,0,0,0-.36.05c-.46,0-.64.26-.64.77a13.74,13.74,0,0,1-.1,1.42c0,.46,0,1,0,1.43s0,1.22.09,1.84c0,.2.05.4.05.56a.4.4,0,0,1-.1.41.31.31,0,0,1-.27.15.14.14,0,0,1-.09,0,2.83,2.83,0,0,1-1.69-.87.17.17,0,0,0,0-.1.69.69,0,0,1-.23.1,5.51,5.51,0,0,1-.69.46,2,2,0,0,1-.82.2h0a.38.38,0,0,1-.32-.15.57.57,0,0,1,0-.51,4.64,4.64,0,0,0,.18-.56,14.1,14.1,0,0,0,.37-1.38c.18-.76.32-1.53.46-2.29,0-.26.09-.46.13-.72.19-.91.37-1.88.55-2.8s.32-1.63.46-2.4c0-.35.14-.71.18-1.07.28-1.38.55-2.75.83-4.13a5.52,5.52,0,0,1,.22-1c.1-.51.23-1,.28-1.48.14-1,.23-2,.27-3a3.33,3.33,0,0,0-.87-2.45.57.57,0,0,0-.18-.15s0,0,0-.06a.39.39,0,0,1-.19-.35.4.4,0,0,1,.14-.31,2.7,2.7,0,0,1,1.65-.71c.13,0,.32.05.45.05a1.92,1.92,0,0,0,.46.1,3.41,3.41,0,0,1,.69.15,9.88,9.88,0,0,1,1,.46c.23.16.41.31.59.46a.85.85,0,0,1,.28.21.69.69,0,0,0,.23.1c.09,0,.13,0,.27-.16a2.89,2.89,0,0,1,1.37-.86,2.6,2.6,0,0,1,.6,0A1.72,1.72,0,0,1,128,14a.51.51,0,0,1,.23.41.6.6,0,0,1-.23.45,2.26,2.26,0,0,0-.55,1.38,19.71,19.71,0,0,0,0,4.9c0,.61.09,1.22.13,1.78s.1,1.23.19,1.84A11.17,11.17,0,0,0,128,26.2a13.19,13.19,0,0,0,.18,1.37c0,.46.09,1,.14,1.48s.09,1.23.18,1.89a32.41,32.41,0,0,0,.73,3.72,3,3,0,0,1,.18.61c.14.31.23.72.37,1a2.34,2.34,0,0,0,.73,1.07A.62.62,0,0,1,130.77,37.82Zm-7.41-8.46a.54.54,0,0,0,.32-.21.32.32,0,0,0,.09-.35,9.18,9.18,0,0,0-.14-1.38v-.2c-.13-1-.27-2.1-.41-3.17-.13-.81-.27-1.63-.41-2.44a4,4,0,0,1-.09-.72,2.53,2.53,0,0,0-.14-.35c0,.15-.13.25-.13.35s-.1.41-.14.56c-.09.62-.23,1.23-.28,1.84a22.12,22.12,0,0,1-.36,2.5c-.09.51-.19,1-.23,1.48,0,.1,0,.2,0,.3,0,.46-.13.87-.18,1.33,0,.15,0,.25.05.3a.54.54,0,0,0,.27.16h.64s.14.05.18.05.05-.05.1-.05h.91Z"/></g></g></svg>